<svg width="223" height="176" viewBox="0 0 223 176" fill="none" xmlns="http://www.w3.org/2000/svg">
<g opacity="0.12" clip-path="url(#clip0_1_74)">
<path d="M223 147.605H213.796V138.4H204.886V147.605H195.668V156.516H204.886V165.72H213.796V156.516H223V147.605Z" fill="url(#paint0_linear_1_74)"/>
<path d="M94.6914 19.2188V31.5797V32.739H95.8506H108.211V43.5077H95.8506H94.6914V44.6669V57.0279H83.9234V44.6669V43.5077H82.7642H70.404V32.739H82.7642H83.9234V31.5797V19.2188H94.6914ZM95.8367 18.0735H82.7642V31.5797H69.2588V44.653H82.7642V58.1592H95.8367V44.653H109.342V31.5797H95.8367V18.0735Z" fill="url(#paint1_linear_1_74)"/>
<path d="M182.024 73.5664V89.5765V91.078H183.526H199.535V105.026H183.526H182.024V106.527V122.537H168.077V106.527V105.026H166.576H150.567V91.078H166.576H168.077V89.5765V73.5664H182.024ZM183.508 72.083H166.576V89.5765H149.083V106.509H166.576V124.003H183.508V106.509H201V89.5765H183.508V72.083Z" fill="url(#paint2_linear_1_74)"/>
<path d="M69.0209 82.1177H58.9038V72H49.1171V82.1177H39V91.905H49.1171V102.023H58.9038V91.905H69.0209V82.1177Z" fill="url(#paint3_linear_1_74)"/>
<path d="M223.021 147.444H213.578V138H204.443V147.444H195V156.579H204.443V166.023H213.578V156.579H223.021V147.444Z" fill="url(#paint4_linear_1_74)"/>
<path d="M136.144 45.4491C138.01 45.4491 139.523 43.9358 139.523 42.069C139.523 40.2023 138.01 38.689 136.144 38.689C134.277 38.689 132.764 40.2023 132.764 42.069C132.764 43.9358 134.277 45.4491 136.144 45.4491Z" fill="url(#paint5_linear_1_74)"/>
</g>
<defs>
<linearGradient id="paint0_linear_1_74" x1="223" y1="152.058" x2="195.674" y2="152.058" gradientUnits="userSpaceOnUse">
<stop stop-color="#FD72A4"/>
<stop offset="0.6321" stop-color="#FD72A4"/>
<stop offset="1" stop-color="#FD72A4"/>
</linearGradient>
<linearGradient id="paint1_linear_1_74" x1="109.347" y1="38.1182" x2="69.2566" y2="38.1182" gradientUnits="userSpaceOnUse">
<stop stop-color="#FD72A4"/>
<stop offset="0.6321" stop-color="#FD72A4"/>
<stop offset="1" stop-color="#FD72A4"/>
</linearGradient>
<linearGradient id="paint2_linear_1_74" x1="201.006" y1="98.0452" x2="149.081" y2="98.0452" gradientUnits="userSpaceOnUse">
<stop stop-color="#FD72A4"/>
<stop offset="0.6321" stop-color="#FD72A4"/>
<stop offset="1" stop-color="#FD72A4"/>
</linearGradient>
<linearGradient id="paint3_linear_1_74" x1="69.0215" y1="87.0103" x2="39.0027" y2="87.0103" gradientUnits="userSpaceOnUse">
<stop stop-color="#FD72A4"/>
<stop offset="0.6321" stop-color="#FD72A4"/>
<stop offset="1" stop-color="#FD72A4"/>
</linearGradient>
<linearGradient id="paint4_linear_1_74" x1="223.021" y1="152.01" x2="195.003" y2="152.01" gradientUnits="userSpaceOnUse">
<stop stop-color="#FD72A4"/>
<stop offset="0.6321" stop-color="#FD72A4"/>
<stop offset="1" stop-color="#FD72A4"/>
</linearGradient>
<linearGradient id="paint5_linear_1_74" x1="139.525" y1="42.0692" x2="132.765" y2="42.0692" gradientUnits="userSpaceOnUse">
<stop stop-color="#FD72A4"/>
<stop offset="0.6321" stop-color="#FD72A4"/>
<stop offset="1" stop-color="#FD72A4"/>
</linearGradient>
<clipPath id="clip0_1_74">
<rect width="223" height="176" fill="white"/>
</clipPath>
</defs>
</svg>
