<svg width="294" height="324" viewBox="0 0 294 324" fill="none" xmlns="http://www.w3.org/2000/svg">
<g clip-path="url(#clip0_1_105)">
<path d="M139.996 299.581C69.9777 299.581 13.2169 242.608 13.2169 172.328C13.2169 102.048 69.9777 45.0745 139.996 45.0745C210.014 45.0745 266.774 102.048 266.774 172.328C266.774 242.608 210.014 299.581 139.996 299.581Z" fill="#FDE9E8"/>
<path d="M159.352 314.629C159.491 315.036 159.673 315.428 159.896 315.796C160.735 317.187 162.13 318.214 163.87 318.434C166.614 318.78 169.309 319.043 171.953 319.223C181.398 319.87 190.208 319.491 198.418 318.284C199.743 318.091 201.053 317.875 202.348 317.637C203.609 317.406 204.856 317.156 206.09 316.886C221.646 313.484 234.851 307.072 245.96 299.232C247.51 298.138 249.02 297.018 250.489 295.871C251.35 295.2 251.095 293.77 250.063 293.472C247.11 292.622 243.901 291.61 240.679 290.444C238.426 289.629 236.167 288.738 233.986 287.773C232.569 287.146 231.184 286.487 229.854 285.798C229.535 285.632 229.582 285.229 229.799 285.058C229.851 285.016 229.915 284.989 229.982 284.981C230.05 284.973 230.118 284.984 230.179 285.012C234.793 286.893 239.616 288.209 244.543 288.932C247.921 289.433 251.333 289.667 254.747 289.633C256.836 289.613 258.834 288.767 260.378 287.281C265.141 282.679 269.572 277.744 273.638 272.512C274.287 271.679 273.975 270.416 273.022 270.029C267.144 267.644 262.736 265.198 260.158 263.622C259.591 263.276 259.896 262.352 260.543 262.456C266.152 263.368 271.732 263.857 276.683 264.104C278.547 264.195 280.324 263.259 281.382 261.63C286.002 254.523 290.049 247.058 293.485 239.305C295.105 235.626 292.747 231.368 288.928 231.065C284.564 230.717 280.185 230.595 275.809 230.701C273.266 230.764 271.059 232.592 270.384 235.196L268.567 242.215C268.544 242.323 268.487 242.42 268.403 242.492C268.32 242.564 268.216 242.606 268.106 242.613C267.996 242.62 267.888 242.59 267.796 242.529C267.705 242.468 267.636 242.379 267.6 242.274C266.972 240.578 266.489 237.863 266.118 234.716C265.896 232.846 264.285 231.526 262.52 231.765C258.626 232.301 254.76 233.034 250.939 233.961C250.027 234.184 249.123 234.416 248.226 234.657C245.234 235.46 242.318 236.368 239.479 237.383C236.652 238.385 234.359 240.472 232.974 243.135C232.198 244.632 231.723 246.267 231.578 247.948C231.117 253.179 230.931 257.821 230.858 261.07C230.84 261.833 230.829 262.519 230.823 263.118C230.814 263.889 229.829 264.121 229.515 263.426C229.411 263.198 229.312 262.97 229.214 262.734C228.198 260.296 227.5 257.537 227.054 254.583C226.684 252.043 226.476 249.482 226.431 246.915C226.415 246.247 226.408 245.571 226.411 244.889C226.412 244.741 226.388 244.594 226.34 244.455C226.113 243.801 225.386 243.442 224.743 243.772C223.774 244.27 222.818 244.778 221.874 245.297C214.881 249.126 208.468 253.508 202.627 258.167C201.671 258.931 200.731 259.702 199.806 260.479C197.424 262.478 195.142 264.514 192.959 266.587C191.755 267.728 190.58 268.875 189.436 270.026C187.227 272.249 185.132 274.486 183.148 276.713C181.832 278.192 180.565 279.663 179.348 281.128C175.255 286.046 171.42 291.174 167.859 296.491C164.4 301.652 161.714 306.218 159.776 309.744C159.367 310.483 159.119 311.3 159.045 312.141C158.972 312.983 159.077 313.83 159.352 314.629Z" fill="#A1CFC4"/>
<path d="M292.688 234.733C286.889 237.816 281.126 240.962 275.369 244.122L266.748 248.886C263.876 250.478 261.01 252.08 258.15 253.691L253.857 256.105L249.572 258.533L241.016 263.414C235.321 266.682 229.641 269.979 223.977 273.304C218.319 276.64 212.679 280.005 207.056 283.401C204.25 285.107 201.45 286.824 198.656 288.55C197.26 289.415 195.866 290.283 194.473 291.153C193.08 292.023 191.691 292.901 190.308 293.787C184.768 297.312 179.263 300.908 173.869 304.663C171.177 306.548 168.511 308.467 165.914 310.489C165.267 310.996 164.623 311.507 163.989 312.031C163.355 312.554 162.725 313.083 162.111 313.63C161.497 314.177 160.894 314.737 160.317 315.323C159.733 315.903 159.197 316.529 158.712 317.195C159.214 316.544 159.766 315.934 160.365 315.372C160.956 314.803 161.573 314.261 162.2 313.731C162.826 313.2 163.464 312.685 164.107 312.181C164.75 311.677 165.406 311.178 166.063 310.688C168.697 308.73 171.393 306.859 174.117 305.029C176.842 303.2 179.588 301.404 182.353 299.637C185.117 297.871 187.893 296.118 190.682 294.386C192.075 293.52 193.471 292.659 194.871 291.801L199.068 289.229C201.871 287.52 204.681 285.823 207.497 284.138C213.124 280.758 218.769 277.408 224.433 274.088C230.087 270.753 235.757 267.443 241.441 264.157L249.963 259.222L258.495 254.305C269.881 247.761 281.278 241.237 292.688 234.733Z" fill="#D3F2E9"/>
<path d="M151.978 318.809C198.967 293.356 222.896 258.472 234.511 225.017C235.001 223.607 233.648 222.293 232.241 222.808C223.591 225.981 213.029 229.329 203.382 230.931C202.672 231.049 202.473 230.012 203.171 229.837C211.356 227.753 222.794 223.525 234.759 214.956C237.127 213.258 238.801 210.756 239.471 207.914C241.506 199.231 242.922 190.414 243.707 181.528C243.737 181.202 243.687 180.873 243.563 180.57C243.438 180.267 243.242 179.998 242.992 179.787C242.742 179.577 242.444 179.43 242.125 179.359C241.806 179.289 241.475 179.297 241.159 179.383C232.653 181.583 225.78 182.529 221.659 182.939C220.751 183.03 220.416 181.798 221.236 181.389C228.342 177.834 235.099 173.862 240.956 170.135C242.037 169.451 242.929 168.505 243.55 167.383C244.17 166.262 244.499 165.001 244.506 163.718C244.525 149.664 243.11 137.977 241.812 130.222C240.937 125.004 235.073 122.375 230.471 125.131C225.057 128.374 219.955 131.768 215.166 135.314C212.294 137.433 211.124 141.155 212.284 144.466L215.411 153.4C215.634 154.038 214.909 154.612 214.346 154.243C212.369 152.945 209.8 150.445 207.039 147.398C205.397 145.586 202.568 145.483 200.726 147.159C192.548 154.608 185.101 162.826 178.486 171.7C174.624 176.881 174.146 183.778 177.271 189.304C181.413 196.631 185.366 202.668 187.663 206.047C188.225 206.873 187.269 207.912 186.392 207.427C180.01 203.894 174.191 197.591 169.077 190.213C168.404 189.243 166.927 189.325 166.337 190.371C139.032 238.726 139.189 290.719 140.838 312.878C141.242 318.316 147.123 321.44 151.978 318.809Z" fill="#A1CFC4"/>
<path d="M236.608 125.08C232.408 133.073 228.258 141.092 224.159 149.138L218.016 161.211C215.972 165.236 213.94 169.268 211.919 173.306C207.862 181.373 203.843 189.46 199.862 197.566C195.881 205.672 191.932 213.794 188.015 221.931C184.111 230.075 180.249 238.239 176.43 246.424C174.528 250.52 172.641 254.622 170.769 258.731C168.897 262.839 167.048 266.96 165.223 271.093C161.574 279.357 158.018 287.663 154.688 296.065C153.035 300.27 151.43 304.495 149.985 308.778C149.804 309.312 149.629 309.85 149.451 310.386C149.273 310.922 149.103 311.462 148.939 312.002C148.602 313.08 148.285 314.165 147.988 315.256C147.694 316.35 147.421 317.444 147.199 318.553C146.963 319.659 146.816 320.782 146.76 321.911C146.837 320.785 147.003 319.666 147.259 318.566C147.501 317.464 147.794 316.373 148.107 315.29C148.42 314.206 148.753 313.127 149.106 312.056C149.279 311.518 149.463 310.985 149.642 310.451C149.821 309.917 150.005 309.383 150.199 308.852C151.706 304.597 153.355 300.394 155.06 296.216C156.766 292.038 158.526 287.879 160.328 283.74C161.229 281.673 162.135 279.607 163.045 277.541C163.956 275.474 164.876 273.413 165.804 271.357C166.73 269.299 167.662 267.243 168.6 265.19L171.415 259.033C173.303 254.932 175.206 250.839 177.126 246.754C180.957 238.578 184.832 230.423 188.751 222.287C192.653 214.144 196.588 206.017 200.558 197.908C204.51 189.79 208.488 181.684 212.49 173.591C220.482 157.398 228.522 141.228 236.608 125.08Z" fill="white"/>
<path d="M171.184 323.119C171.56 321.912 171.952 320.684 172.384 319.365C173.426 316.189 174.522 313.042 175.641 310.01L175.67 309.931C176.628 307.332 177.643 304.709 178.687 302.135L178.756 301.966C180.049 298.783 181.422 295.589 182.839 292.468L182.88 292.377C183.48 291.055 184.102 289.717 184.731 288.401C185.548 286.669 186.424 284.89 187.323 283.114C188.887 280.014 190.532 276.927 192.212 273.93C192.426 273.55 192.64 273.171 192.854 272.793C195.18 268.691 197.644 264.638 200.181 260.738C200.684 259.962 201.212 259.161 201.795 258.288C202.746 256.868 203.635 255.568 204.512 254.315L204.533 254.285C209.009 247.885 213.818 241.726 218.94 235.835C219.188 235.55 219.436 235.267 219.684 234.986C223.01 231.207 226.486 227.529 230.017 224.053L230.198 223.871L230.289 223.78C230.351 223.72 230.411 223.659 230.471 223.597L230.666 223.406C231.27 222.817 231.878 222.231 232.477 221.661H232.749V221.401C236.049 218.271 239.463 215.246 242.899 212.409L242.92 212.391C251.942 204.942 259.665 199.972 264.587 197.101L264.683 197.045C268.757 194.675 271.19 193.574 271.215 193.563L270.843 192.73C270.82 192.741 268.391 193.838 264.333 196.194L264.226 196.256C259.276 199.139 251.459 204.159 242.323 211.704L242.301 211.722C238.807 214.609 235.336 217.687 231.984 220.873L231.842 221.008C231.243 221.578 230.635 222.164 230.033 222.752L229.839 222.942C229.776 223.002 229.714 223.063 229.652 223.124L229.561 223.215L229.373 223.398C225.831 226.886 222.337 230.581 218.997 234.375C218.749 234.659 218.5 234.942 218.25 235.229C213.099 241.153 208.263 247.346 203.764 253.783L203.743 253.813C202.868 255.062 201.982 256.359 201.034 257.774C200.449 258.651 199.92 259.455 199.414 260.235C196.871 264.149 194.393 268.221 192.057 272.336C191.843 272.715 191.628 273.095 191.413 273.477C189.728 276.485 188.076 279.585 186.509 282.696C185.607 284.482 184.732 286.268 183.907 288.004C183.263 289.355 182.624 290.729 182.008 292.087L181.968 292.179C180.548 295.308 179.172 298.512 177.881 301.702L177.845 301.793C176.787 304.402 175.757 307.061 174.789 309.693L174.761 309.771C173.647 312.79 172.557 315.922 171.52 319.083C171.087 320.405 170.693 321.635 170.316 322.85L171.184 323.119Z" fill="#3AA490"/>
<path d="M239.945 213.043C239.945 213.043 286.555 196.816 275.547 183.804C264.54 170.792 239.945 213.043 239.945 213.043Z" fill="#3AA490"/>
<path d="M229.931 223.398C231.369 225.558 266.756 228.31 265.065 217.052C263.263 205.038 229.931 223.398 229.931 223.398Z" fill="#3AA490"/>
<path d="M230.359 209.221C230.359 201.453 229.43 194.727 234.493 189.243C237.868 185.585 244.801 183.325 245.008 190.41C245.448 205.526 230.356 223.74 230.356 223.74L230.359 209.221Z" fill="#3AA490"/>
<path d="M200.766 257.793C202.152 259.315 239.555 257.264 227.688 247.814C215.821 238.364 200.766 257.793 200.766 257.793Z" fill="#3AA490"/>
<path d="M199.441 246.415C198.532 240.216 199.841 233.905 203.184 228.821C205.413 225.431 207.774 223.733 208.768 229.358C210.889 241.357 201.139 258.002 201.139 258.002L199.441 246.415Z" fill="#3AA490"/>
<path d="M218.055 235.209C218.885 236.526 226.864 209.45 215.655 204.327C204.446 199.204 210.377 223.029 218.055 235.209Z" fill="#3AA490"/>
<path d="M218.495 235.095C217.104 235.796 239.31 251.38 246.765 239.099C254.221 226.818 231.367 228.614 218.495 235.095Z" fill="#3AA490"/>
<path d="M191.128 273.136C191.619 273.914 196.335 257.912 189.711 254.887C183.086 251.863 186.592 265.939 191.128 273.136Z" fill="#3AA490"/>
<path d="M191.389 273.068C190.571 273.482 203.689 282.692 208.094 275.439C212.5 268.185 198.995 269.239 191.389 273.068Z" fill="#3AA490"/>
<path d="M171.817 313.478C193.289 293.777 214.47 285.683 228.457 282.362C243.595 278.768 253.766 279.836 253.866 279.847L253.966 278.941C253.864 278.93 243.536 277.847 228.249 281.474C219.278 283.605 210.371 286.917 201.774 291.32C191.033 296.82 180.747 304.05 171.205 312.806L171.817 313.478Z" fill="#3AA490"/>
<path d="M234.265 280.164C234.265 280.164 259.942 285.341 258.566 276.274C257.19 267.207 234.265 280.164 234.265 280.164Z" fill="#3AA490"/>
<path d="M226.837 282.25C226.889 283.65 242.19 294.602 244.555 288.896C247.08 282.807 226.837 282.25 226.837 282.25Z" fill="#3AA490"/>
<path d="M230.977 275.762C233.139 272.144 234.588 268.758 238.413 267.586C240.963 266.805 244.74 267.647 242.863 271.004C238.857 278.164 226.936 282.524 226.936 282.524L230.977 275.762Z" fill="#3AA490"/>
<path d="M204.025 290.302C204.231 291.389 221.784 300.656 219.025 293.011C216.267 285.366 204.025 290.302 204.025 290.302Z" fill="#3AA490"/>
<path d="M206.588 284.64C207.899 281.504 210.251 278.923 213.184 277.467C215.139 276.497 216.683 276.352 215.57 279.244C213.194 285.412 204.136 290.501 204.136 290.501L206.588 284.64Z" fill="#3AA490"/>
<path d="M218.158 284.506C218.168 285.346 229.329 274.916 225.661 269.465C221.993 264.013 218.061 276.735 218.158 284.506Z" fill="#3AA490"/>
<path d="M218.385 284.574C217.559 284.52 223.304 297.848 230.106 294.164C236.909 290.48 226.038 285.073 218.385 284.574Z" fill="#3AA490"/>
<path d="M195.378 294.814C195.385 295.311 201.978 289.146 199.812 285.927C197.646 282.707 195.317 290.221 195.378 294.814Z" fill="#3AA490"/>
<path d="M195.515 294.854C195.027 294.822 198.422 302.694 202.442 300.521C206.463 298.347 200.035 295.149 195.515 294.854Z" fill="#3AA490"/>
<path d="M140.019 318.979C91.5621 296.471 65.5456 263.127 51.9034 230.451C51.3285 229.074 52.5991 227.679 54.0322 228.106C62.8591 230.741 73.6059 233.431 83.3337 234.435C84.0485 234.509 84.1847 233.463 83.4772 233.328C75.1799 231.753 63.5048 228.237 51.0369 220.422C48.5703 218.873 46.7467 216.48 45.9038 213.684C43.3418 205.144 41.3894 196.431 40.0612 187.613C40.0121 187.288 40.0417 186.957 40.1476 186.647C40.2534 186.337 40.4324 186.057 40.6692 185.832C40.906 185.606 41.1937 185.441 41.5077 185.351C41.8216 185.261 42.1527 185.248 42.4725 185.314C51.1005 186.986 58.0156 187.502 62.1534 187.657C63.0616 187.69 63.325 186.442 62.4813 186.084C55.172 182.977 48.1843 179.429 42.1102 176.067C40.9891 175.451 40.0409 174.561 39.3529 173.48C38.665 172.399 38.2595 171.161 38.174 169.881C37.2957 155.855 37.9923 144.102 38.8143 136.283C39.3674 131.02 45.06 128.034 49.8218 130.501C55.4242 133.404 60.7242 136.477 65.7218 139.721C68.7189 141.659 70.1129 145.302 69.1584 148.68L66.5828 157.787C66.4011 158.437 67.1577 158.967 67.6971 158.563C69.5917 157.147 72.0029 154.493 74.5723 151.281C76.0999 149.372 78.9171 149.093 80.8589 150.653C89.4759 157.584 97.4117 165.327 104.558 173.777C108.729 178.711 109.628 185.566 106.848 191.273C103.162 198.839 99.5825 205.111 97.4991 208.625C96.9887 209.485 98.0068 210.462 98.8514 209.924C105.005 206.004 110.428 199.349 115.081 191.676C115.693 190.665 117.17 190.655 117.826 191.664C148.041 238.253 151.066 290.156 150.776 312.376C150.705 317.821 145.026 321.301 140.019 318.979Z" fill="#A1CFC4"/>
<path d="M42.1072 129.503C51.3624 145.006 60.5768 160.532 69.7503 176.082C74.3271 183.861 78.893 191.648 83.4479 199.443C88.0029 207.239 92.5282 215.048 97.0238 222.872C101.53 230.694 105.996 238.538 110.422 246.405C112.637 250.337 114.838 254.277 117.025 258.225L120.295 264.155C121.381 266.133 122.462 268.114 123.539 270.097C124.616 272.08 125.685 274.068 126.747 276.06C127.809 278.051 128.865 280.045 129.915 282.042C132.015 286.036 134.074 290.052 136.09 294.091C138.101 298.131 140.056 302.204 141.874 306.33C142.104 306.845 142.323 307.366 142.548 307.88C142.773 308.394 142.989 308.918 143.201 309.441C143.632 310.484 144.044 311.534 144.437 312.591C144.829 313.649 145.201 314.715 145.527 315.796C145.864 316.873 146.113 317.977 146.271 319.095C146.149 317.972 145.888 316.867 145.587 315.778C145.285 314.69 144.929 313.616 144.555 312.549C144.181 311.483 143.782 310.425 143.366 309.375C143.162 308.848 142.946 308.327 142.736 307.802C142.526 307.277 142.306 306.757 142.085 306.237C140.326 302.075 138.413 297.98 136.454 293.911C132.515 285.78 128.354 277.761 124.102 269.792C121.979 265.808 119.829 261.836 117.654 257.877C115.478 253.919 113.293 249.968 111.097 246.027C106.692 238.144 102.237 230.29 97.7323 222.465C93.2275 214.64 88.6883 206.835 84.1146 199.05C79.5336 191.271 74.9277 183.506 70.2971 175.755C67.9763 171.883 65.6516 168.014 63.3229 164.148L56.3034 152.57C51.6019 144.861 46.8698 137.172 42.1072 129.503Z" fill="white"/>
<path d="M0.254089 221.827C2.03055 227.682 5.08577 236.322 9.95831 246.103C10.4071 246.994 11.0723 247.757 11.8924 248.323C12.7126 248.888 13.6613 249.236 14.651 249.337C20.0204 249.893 26.1026 250.308 32.2812 250.307C32.9941 250.307 33.1894 251.28 32.5209 251.534C29.5111 252.688 24.3952 254.422 17.708 255.853C17.4588 255.903 17.2253 256.013 17.0275 256.173C16.8297 256.334 16.6734 256.54 16.572 256.774C16.4706 257.008 16.427 257.263 16.445 257.517C16.463 257.772 16.5421 258.018 16.6754 258.236C20.2955 264.152 24.3309 269.802 28.751 275.142C30.2022 276.889 32.2349 278.049 34.4727 278.407C45.7726 280.208 55.2026 279.17 61.6282 277.769C62.1731 277.65 62.3947 278.441 61.8597 278.607C54.5841 280.851 46.0687 282.198 38.9447 283C38.6871 283.025 38.4418 283.123 38.2379 283.283C38.034 283.443 37.8799 283.658 37.794 283.903C37.708 284.148 37.6937 284.412 37.7528 284.665C37.8118 284.918 37.9418 285.148 38.1273 285.33C44.8464 291.93 52.2846 297.749 60.3012 302.678C73.1706 310.576 88.5665 316.758 106.948 319.849C109.227 320.231 111.553 320.566 113.926 320.851C118.461 321.398 123.17 321.754 128.052 321.919C129.104 321.958 130.148 321.719 131.079 321.226C131.63 320.932 132.132 320.553 132.566 320.102C132.841 319.816 133.086 319.503 133.299 319.168C133.793 318.393 134.093 317.51 134.174 316.594C134.255 315.678 134.114 314.755 133.763 313.906C132.161 309.968 129.872 304.803 126.799 298.895C124.854 295.158 122.596 291.118 120 286.906C116.206 280.74 112.047 274.81 107.544 269.146C106.03 267.244 104.447 265.344 102.795 263.445C100.342 260.631 97.7431 257.835 94.9839 255.086C93.5532 253.661 92.0801 252.251 90.5646 250.855C89.9252 250.266 89.2783 249.682 88.6238 249.101C84.7601 245.663 80.7159 242.435 76.5083 239.431C76.3266 239.3 76.1428 239.169 75.957 239.04C75.1935 238.499 74.4206 237.965 73.6383 237.436C73.5009 237.343 73.3467 237.277 73.1842 237.242C72.8803 237.178 72.5634 237.228 72.294 237.383C72.0246 237.538 71.8216 237.788 71.7238 238.084C71.7022 238.148 71.6864 238.214 71.6766 238.282C71.3452 240.596 70.8904 242.891 70.3143 245.156C69.2244 249.389 67.6859 253.223 65.5643 256.306C65.5571 256.316 65.5498 256.327 65.5407 256.338C65.0866 256.935 64.0976 256.546 64.2011 255.786C64.2556 255.396 64.311 254.966 64.3709 254.51C64.5862 252.85 64.8341 250.743 65.0666 248.32C65.2919 245.973 65.5008 243.328 65.6533 240.506C65.7181 239.305 65.6064 238.102 65.3218 236.934C64.7214 234.482 63.3972 232.269 61.5228 230.585C61.313 230.396 61.0977 230.213 60.8743 230.038C60.2033 229.51 59.4817 229.05 58.7201 228.665C55.3742 226.975 51.9 225.402 48.2974 223.946C43.8629 222.164 39.3373 220.618 34.7397 219.316C32.8751 218.788 30.9416 219.847 30.4239 221.681C29.5538 224.766 28.6284 227.402 27.6993 228.996C27.639 229.095 27.5498 229.173 27.4437 229.219C27.3376 229.265 27.2198 229.277 27.1066 229.254C26.9934 229.23 26.8902 229.172 26.8113 229.087C26.7324 229.002 26.6815 228.895 26.6657 228.78L25.7575 221.467C25.4342 218.876 23.5024 216.766 20.944 216.169C20.8241 216.139 20.7024 216.115 20.5807 216.094C16.0161 215.299 11.2879 214.712 6.39632 214.332C5.43607 214.252 4.47081 214.407 3.58382 214.785C2.69682 215.163 1.91469 215.752 1.30489 216.5C0.703751 217.231 0.292999 218.101 0.109589 219.031C-0.0738373 219.96 -0.0241852 220.921 0.254089 221.827Z" fill="#A1CFC4"/>
<path d="M0.565765 215.967C11.8675 224.287 23.1542 232.625 34.4257 240.982C40.0566 245.17 45.6814 249.364 51.3002 253.562C56.919 257.76 62.5235 261.98 68.1139 266.221C73.7103 270.453 79.2846 274.712 84.8368 278.999C87.6159 281.14 90.3865 283.292 93.1487 285.453L97.2847 288.704C98.6627 289.789 100.038 290.878 101.411 291.97C104.155 294.153 106.885 296.355 109.6 298.576C112.315 300.797 115.007 303.045 117.678 305.318C120.345 307.597 122.98 309.912 125.536 312.311C126.176 312.912 126.808 313.52 127.433 314.135C128.058 314.75 128.672 315.375 129.275 316.012C129.878 316.65 130.468 317.297 131.029 317.972C131.598 318.64 132.112 319.353 132.566 320.105C132.129 319.342 131.63 318.615 131.076 317.932C130.532 317.244 129.955 316.58 129.365 315.927C128.776 315.274 128.172 314.637 127.557 314.012C126.942 313.388 126.322 312.764 125.693 312.15C123.178 309.697 120.572 307.34 117.94 305.016C112.664 300.38 107.262 295.893 101.809 291.473C100.446 290.366 99.0796 289.264 97.7106 288.167C96.3417 287.07 94.9684 285.978 93.591 284.89C90.8391 282.711 88.0788 280.544 85.3099 278.388C79.7699 274.079 74.2019 269.806 68.6061 265.57C63.0104 261.333 57.3952 257.124 51.7607 252.943C46.1207 248.767 40.4677 244.609 34.8017 240.47C31.965 238.404 29.126 236.342 26.2845 234.285L17.7418 228.137C12.0347 224.056 6.30929 220 0.565765 215.967Z" fill="white"/>
<path d="M130.934 322.053L131.77 321.698C122.659 300.053 111.239 280.396 97.8294 263.271C87.0998 249.568 75.0787 237.447 62.0995 227.245C50.549 218.165 40.3616 212.317 33.8497 209.013C26.782 205.424 22.3818 203.963 22.3382 203.949L22.0557 204.815C22.0984 204.829 26.456 206.273 33.4746 209.844C39.952 213.135 50.0849 218.96 61.5764 227.994C81.8731 243.954 110.381 273.23 130.934 322.053Z" fill="#3AA490"/>
<path d="M53.5054 220.284C53.5054 220.284 8.11039 209.8 16.9191 195.726C25.7278 181.652 53.5054 220.284 53.5054 220.284Z" fill="#3AA490"/>
<path d="M64.0369 229.285C62.9388 231.575 30.1833 238.419 30.4849 227.163C30.8073 215.147 64.0369 229.285 64.0369 229.285Z" fill="#3AA490"/>
<path d="M62.0296 215.404C61.1459 207.772 61.2531 201.058 55.8992 196.26C52.3309 193.062 45.5956 191.654 46.2059 198.638C47.5092 213.539 63.679 229.666 63.679 229.666L62.0296 215.404Z" fill="#3AA490"/>
<path d="M95.1904 259.662C94.0679 261.319 58.8839 263.682 68.9014 253.007C78.919 242.332 95.1904 259.662 95.1904 259.662Z" fill="#3AA490"/>
<path d="M95.1411 248.329C95.2883 242.13 93.3474 236.086 89.6455 231.481C87.1788 228.412 84.7802 227.02 84.4896 232.666C83.8684 244.699 94.865 259.914 94.865 259.914L95.1411 248.329Z" fill="#3AA490"/>
<path d="M76.475 239.498C75.8493 240.889 65.3204 215.223 75.2154 208.879C85.1103 202.534 82.2685 226.633 76.475 239.498Z" fill="#3AA490"/>
<path d="M76.0507 239.437C77.4303 239.963 58.4478 257.873 50.0868 246.679C41.7258 235.486 63.2867 234.577 76.0507 239.437Z" fill="#3AA490"/>
<path d="M105.939 273.606C105.569 274.427 99.3474 259.262 105.194 255.513C111.041 251.763 109.362 266.004 105.939 273.606Z" fill="#3AA490"/>
<path d="M105.688 273.571C106.505 273.882 95.2855 284.464 90.3457 277.855C85.406 271.246 98.1454 270.699 105.688 273.571Z" fill="#3AA490"/>
<path d="M127.049 315.932L127.744 315.346C119.892 305.957 111.191 297.92 101.886 291.448C94.4383 286.269 86.5887 282.077 78.5547 278.99C64.8598 273.728 55.2273 273.499 55.132 273.497L55.1156 274.409C55.2064 274.409 64.7172 274.642 78.2749 279.858C90.7819 284.672 109.4 294.839 127.049 315.932Z" fill="#3AA490"/>
<path d="M73.1353 277.051C73.1353 277.051 48.9397 278.818 51.1757 270.458C53.4117 262.097 73.1353 277.051 73.1353 277.051Z" fill="#3AA490"/>
<path d="M79.7524 279.911C79.5554 281.22 64.2975 289.665 62.7281 284.013C61.0543 277.988 79.7524 279.911 79.7524 279.911Z" fill="#3AA490"/>
<path d="M76.6328 273.307C75.0279 269.645 74.0562 266.288 70.6586 264.723C68.3935 263.68 64.8261 264.015 66.1974 267.397C69.121 274.613 79.6326 280.153 79.6326 280.153L76.6328 273.307Z" fill="#3AA490"/>
<path d="M99.8965 290.237C99.5913 291.235 82.4397 297.824 85.7965 290.972C89.1532 284.119 99.8965 290.237 99.8965 290.237Z" fill="#3AA490"/>
<path d="M98.1384 284.605C97.2656 281.498 95.3756 278.787 92.8308 277.065C91.1334 275.916 89.7274 275.594 90.444 278.446C91.9735 284.532 99.7695 290.412 99.7695 290.412L98.1384 284.605Z" fill="#3AA490"/>
<path d="M87.5023 283.081C87.4033 283.869 78.2441 272.716 82.1993 268.035C86.1545 263.354 88.4205 275.787 87.5023 283.081Z" fill="#3AA490"/>
<path d="M87.2827 283.116C88.0492 283.165 81.3366 295 75.4659 290.715C69.5953 286.431 80.1868 282.66 87.2827 283.116Z" fill="#3AA490"/>
<path d="M107.377 295.524C107.318 295.99 101.905 289.399 104.243 286.633C106.58 283.867 107.92 291.214 107.377 295.524Z" fill="#3AA490"/>
<path d="M107.246 295.545C107.7 295.574 103.733 302.564 100.264 300.036C96.7943 297.507 103.054 295.277 107.246 295.545Z" fill="#3AA490"/>
<path d="M161.713 172.016C161.901 172.016 162.086 172.016 162.273 172.009C165.935 171.918 169.539 170.921 172.984 169.041C176.699 167.014 180.349 163.897 183.833 159.777L183.853 159.753L183.869 159.726C183.89 159.687 186.061 155.764 187.292 150.504C188.018 147.404 188.28 144.457 188.076 141.734C187.819 138.317 186.821 135.252 185.109 132.618C184.195 131.212 183.314 129.923 182.463 128.677C176.548 120.017 173.29 115.252 182.545 105.801C192.365 95.7735 189.719 86.1944 186.649 75.1038C186.308 73.874 185.956 72.6014 185.618 71.3151C184.771 68.1008 186.028 63.7196 187.482 58.6438C188.529 54.9973 189.715 50.8632 190.254 46.5786C190.876 41.6432 190.541 37.2748 189.234 33.2236C187.625 28.2407 184.596 23.7975 179.976 19.6406C174.758 14.9467 167.418 10.6558 158.164 6.88722C151.34 4.10773 144.98 3.84701 139.259 6.11235C134.053 8.1735 129.333 12.3414 125.235 18.4984C120.22 26.0301 116.178 36.3796 113.221 49.2588C110.633 60.529 108.984 73.431 108.452 86.57C107.961 98.6943 108.463 110.614 109.866 120.138C111.319 130.023 113.615 136.8 116.5 139.738C118.226 141.494 120.055 143.456 121.993 145.534C127.482 151.417 133.704 158.087 140.483 163.277C148.147 169.156 155.099 172.016 161.713 172.016ZM183.328 159.388C176.75 167.158 169.661 171.19 162.258 171.371C155.628 171.534 148.635 168.723 140.869 162.78C134.131 157.624 127.928 150.97 122.457 145.107C120.516 143.027 118.683 141.062 116.952 139.3C114.203 136.499 111.909 129.664 110.494 120.054C109.097 110.568 108.597 98.6889 109.086 86.6055C110.239 58.1396 116.473 32.8152 125.762 18.8621C134.268 6.08683 145.088 2.2599 157.924 7.48706C196.938 23.3755 191.119 43.6624 186.87 58.4751C185.389 63.6385 184.11 68.098 185.001 71.4828C185.341 72.7728 185.693 74.0472 186.034 75.2797C189.049 86.1789 191.652 95.593 182.09 105.363C177.554 109.994 175.732 113.773 176.174 117.617C176.59 121.224 178.95 124.676 181.936 129.047C182.786 130.291 183.662 131.577 184.576 132.976C188.32 138.728 187.784 145.597 186.675 150.346C185.519 155.295 183.516 159.041 183.328 159.388Z" fill="#452321"/>
<path d="M59.2344 182.602C71.9439 193.128 115.68 185.086 128.888 185.204C142.096 185.323 100.354 107.738 100.354 107.738C100.354 107.738 46.5249 172.077 59.2344 182.602Z" fill="#281313"/>
<path d="M174.571 161.852C174.571 161.852 184.327 147.1 177.824 135.25C171.322 123.4 165.777 118.079 177.342 107.921C188.907 97.7626 185.294 87.1223 182.882 74.0626C180.471 61.0029 211.603 33.4332 160.498 7.97837C109.394 -17.4765 94.6987 119.409 109.4 136.821C124.101 154.234 146.743 190.149 174.571 161.852Z" fill="#452321"/>
<path d="M93.4339 266.063C93.6246 266.519 94.4865 268.651 95.6881 271.929C95.9145 272.543 96.1516 273.195 96.3992 273.887C96.9705 275.488 97.5953 277.286 98.2465 279.236C99.5234 283.065 100.899 287.485 102.175 292.176L102.185 292.211C102.341 292.793 102.497 293.378 102.651 293.967C102.823 294.619 102.991 295.275 103.155 295.933C103.246 296.307 103.342 296.681 103.434 297.056C103.653 297.955 103.865 298.857 104.07 299.764C105.582 306.419 106.704 313.269 106.93 319.482C106.935 319.604 106.939 319.726 106.942 319.847C109.221 320.23 111.547 320.564 113.919 320.849C121.93 322.266 130.017 323.203 138.138 323.657L147.326 323.974C146.855 323.107 146.004 321.577 144.794 319.547C144.602 319.225 144.4 318.891 144.19 318.544C143.258 317.004 142.15 315.23 140.873 313.275C138.215 309.205 134.825 304.358 130.772 299.243C127.58 295.213 123.977 291.018 119.994 286.905C115.623 282.389 110.797 277.971 105.554 273.986C105.29 273.783 105.024 273.583 104.757 273.386C104.645 273.299 104.532 273.215 104.419 273.133C100.922 270.528 97.2516 268.166 93.4339 266.063Z" fill="#F46E90"/>
<path d="M169.452 22.0053C169.452 22.0053 189.088 29.7448 182.824 52.236C176.56 74.7272 171.744 70.4955 174.632 91.7779C176.086 102.496 160.657 106.289 160.657 119.59C160.657 127.542 179.45 132.529 174.993 153.328C170.535 174.127 73.4352 137.97 73.9174 123.58C74.3997 109.191 153.429 8.22086 169.452 22.0053Z" fill="#281313"/>
<path d="M142.225 81.3783C142.225 81.3783 128.492 93.5938 129.214 98.1865C129.936 102.779 146.442 122.734 153.068 127.934C159.694 133.134 84.0376 136.882 84.0376 136.882C84.0376 136.882 78.3749 106.891 87.1691 97.099C95.9633 87.3074 99.2165 85.2481 103.193 82.8296C107.169 80.4111 123.311 58.7631 122.588 48.3708C121.865 37.9785 142.225 81.3783 142.225 81.3783Z" fill="#F79071"/>
<path d="M121.794 51.9379C124.633 62.4816 131.865 72.5512 131.865 72.5512C131.865 72.5512 141.743 87.3038 147.887 89.9629C149.663 90.7323 151.117 90.9146 152.295 90.7515C155.194 90.3485 156.425 87.8507 156.681 86.8188C157.045 85.3684 157.045 84.28 157.284 84.6428C157.522 85.0056 158.97 85.8516 160.416 85.7312C161.862 85.6109 161.983 82.9499 161.983 82.9499C162.464 82.9499 163.308 82.4659 164.391 81.9827C165.475 81.4995 164.994 78.9589 165.235 78.1129C165.476 77.267 168.831 78.2898 170.412 77.8714C172.7 77.266 171.496 67.3505 171.496 67.3505C171.028 64.7734 173.245 62.7213 174.361 61.9337C175.449 61.1632 176.384 60.1951 177.118 59.0795C180.557 53.8642 181.545 48.2596 181.602 43.7052C181.622 41.8913 181.503 40.0785 181.246 38.283C180.895 35.8472 180.415 34.3384 180.415 34.3384C123.329 18.719 117.47 35.88 121.794 51.9379Z" fill="#F9AE8F"/>
<path d="M90.5604 250.858C90.5732 251.581 90.5946 252.311 90.6249 253.046C90.657 253.812 90.6988 254.586 90.7502 255.368C90.7566 255.477 90.7639 255.588 90.772 255.696C90.8041 256.156 90.8396 256.618 90.8783 257.082C90.9795 258.259 91.1503 259.43 91.3896 260.588C91.738 262.261 92.1931 263.91 92.7519 265.525C93.5119 267.714 94.4027 269.855 95.4193 271.937C95.7318 272.584 96.0578 273.234 96.3975 273.884C97.2503 275.525 98.1821 277.173 99.1757 278.822C100.742 281.416 102.466 284.01 104.293 286.57C105.273 287.947 106.282 289.312 107.32 290.667C108.82 292.632 110.363 294.565 111.926 296.449C116.582 302.069 121.396 307.27 125.665 311.64C126.395 312.386 127.109 313.108 127.804 313.806C129.83 315.836 131.689 317.641 133.296 319.17C135.413 321.182 137.094 322.719 138.141 323.663L147.33 323.98C148.238 323.993 149.146 323.999 150.054 323.998C157.073 323.998 163.971 323.659 170.747 322.982C180.068 322.066 189.313 320.495 198.415 318.282C199.74 318.089 201.05 317.873 202.345 317.635C203.606 317.404 204.853 317.154 206.086 316.884C205.996 316.698 205.905 316.51 205.814 316.321C202.989 310.544 198.912 303.221 194.599 295.816C193.989 294.767 193.374 293.717 192.755 292.666C192.367 292.008 191.979 291.351 191.589 290.694C191.26 290.139 190.931 289.586 190.602 289.036C189.36 286.95 188.124 284.895 186.916 282.903C185.614 280.753 184.346 278.678 183.141 276.719C177.639 267.767 173.475 261.256 173.475 261.256C175.484 259.816 192.411 243.698 192.411 243.698C193.163 242.38 193.86 241.082 194.499 239.805C195.032 238.74 195.529 237.691 195.988 236.658C202.513 221.981 201.801 210.174 198.713 200.799C196.205 193.175 192.132 187.163 189.11 182.524C186.945 179.2 184.516 176.898 182.154 174.736C180.962 173.642 179.787 172.588 178.671 171.454C177.044 169.799 175.545 167.976 174.312 165.633C172.405 162.028 171.122 157.193 170.944 149.836C170.411 127.94 148.693 123.631 139.209 113.577C135.022 109.139 132.752 105.373 131.614 102.273C129.056 95.3131 132.231 91.7779 132.231 91.7779C129.246 90.7679 126.459 89.3977 123.933 87.8835C119.78 85.3921 116.33 82.5051 113.869 80.1823C111.209 77.6744 109.704 75.8157 109.704 75.8157L107.189 78.009L94.4685 89.106C94.4685 89.106 95.1042 97.1427 96.0079 108.665C97.382 126.179 99.3819 151.746 100.731 169.387C101.163 175.045 101.527 179.888 101.783 183.387C102.362 191.304 100.682 198.916 98.4573 206.998C98.2024 207.922 97.9414 208.853 97.6744 209.789C96.8489 212.701 95.9788 215.683 95.1405 218.771C93.8073 223.694 92.5558 228.876 91.6984 234.47C90.8521 239.89 90.4714 245.373 90.5604 250.858Z" fill="#FD93AE"/>
<path d="M182.153 174.736C178.021 175.042 170.947 176.538 165.351 182.712C156.918 192.023 134.668 217.975 117.886 219.593C96.5618 221.649 88.3271 243.885 92.7491 265.528C91.7501 262.622 91.0998 259.79 90.8728 257.084C88.1291 224.309 103.349 204.979 101.771 183.387C100.194 161.796 94.4584 89.107 94.4584 89.107L107.179 78.0099C109.45 78.5894 111.681 79.315 113.859 80.1823C117.517 81.6263 121.409 83.5553 125.55 86.0084C124.975 86.6025 124.435 87.2295 123.932 87.8863C110.304 97.4582 116.953 117.891 118.737 136.884C121.508 166.389 109.836 178.672 131.697 177.187C151.538 175.836 166.935 164.1 174.31 165.635L182.153 174.736Z" fill="#F46E90"/>
<path d="M121.794 51.9379C124.633 62.4816 131.865 72.5512 131.865 72.5512C131.865 72.5512 141.743 87.3038 147.887 89.9629C149.663 90.7323 151.117 90.9147 152.295 90.7515H152.288C147.412 90.9338 142.828 84.8844 140.662 80.2899C138.497 75.6954 149.452 58.0402 154.031 58.1615C158.611 58.2827 168.849 55.3802 177.463 48.1602C179.54 46.4191 180.835 44.9432 181.604 43.7061C181.624 41.8922 181.505 40.0794 181.248 38.2839C179.431 34.7286 141.865 33.0093 141.865 33.0093C141.865 33.0093 128.586 45.4655 121.794 51.9379Z" fill="#F79071"/>
<path d="M144.152 236.885C144.658 237.725 145.559 238.921 146.791 240.448C150.907 245.553 158.717 254.372 167.872 265.967C171.531 270.6 175.403 275.675 179.342 281.135C180.993 283.425 182.652 285.781 184.321 288.204C184.926 289.09 185.535 289.984 186.146 290.886C186.804 291.861 187.46 292.846 188.115 293.839C188.386 294.248 188.656 294.66 188.925 295.074C189.582 296.08 190.238 297.096 190.893 298.121C194.783 304.221 198.594 310.642 202.18 317.326L202.347 317.637C203.608 317.406 204.856 317.156 206.089 316.886C205.998 316.7 205.907 316.512 205.816 316.322C202.991 310.546 198.914 303.223 194.602 295.818C193.992 294.769 193.377 293.719 192.757 292.668C192.37 292.01 191.981 291.353 191.591 290.696C191.262 290.141 190.934 289.588 190.605 289.038C189.362 286.952 188.126 284.897 186.918 282.905C185.616 280.755 184.348 278.679 183.144 276.72C177.641 267.768 173.478 261.258 173.478 261.258C175.484 259.816 192.41 243.698 192.41 243.698C193.163 242.379 193.859 241.082 194.499 239.805C191.741 242.54 184.929 244.728 177.54 244.967C173.031 245.117 168.306 244.542 164.154 242.931C156.738 240.051 151.473 237.479 147.998 235.741C141.986 232.733 141.328 232.212 144.152 236.885Z" fill="#F46E90"/>
<path d="M81.9894 146.677C87.6375 192.641 93.2457 212.356 100.629 216.061C107.226 219.372 124.361 215.846 145.441 196.989C166.522 178.133 170.537 174.103 170.537 174.103C170.537 174.103 180.504 175.015 182.36 172.018C182.458 171.86 182.533 171.69 182.583 171.512C183.582 167.915 181.15 167.193 181.584 165.755C182.018 164.316 180.794 161.797 180.221 160.788C180.221 160.788 180.794 158.486 178.214 156.902C178.214 156.902 177.066 152.872 175.346 152.152C173.626 151.432 171.044 149.417 169.611 149.562C168.62 149.661 166.13 149.418 164.539 149.306C163.824 149.254 163.29 149.229 163.157 149.274C163.157 149.274 162.158 150.277 162.158 152.872C162.158 155.467 163.735 158.342 156.709 162.229C151.09 165.336 127.491 179.737 118.254 185.384C116.715 186.325 114.76 185.121 114.901 183.317C116.096 168.029 119.02 116.638 106.273 97.1646C106.162 96.9951 106.051 96.8301 105.936 96.6651C103.007 92.4097 99.2772 89.7997 94.5463 89.6083C94.5336 89.611 75.2423 91.7779 81.9894 146.677Z" fill="#F9AE8F"/>
<path d="M81.9896 146.677C87.6378 192.641 93.246 212.356 100.629 216.061C107.226 219.372 124.361 215.846 145.442 196.989C166.522 178.133 170.537 174.103 170.537 174.103C170.537 174.103 180.504 175.015 182.36 172.018C180.098 172.172 170.207 168.215 166.801 174.731C162.946 182.107 118.757 217.152 102.318 213.05C93.0907 210.747 87.2518 171.947 90.6022 154.616C94.1442 136.293 89.4605 131.924 90.5449 112.819C91.3051 99.4263 100.706 97.2631 106.262 97.1674C103.283 92.6175 99.4509 89.8098 94.5356 89.6111C94.5338 89.6111 75.2425 91.7779 81.9896 146.677Z" fill="#F79071"/>
<path d="M197.042 236.866C197.306 236.876 197.563 236.952 197.789 237.088C198.016 237.223 198.206 237.413 198.341 237.64C198.977 238.703 198.445 240.422 197.403 242.206C195.355 245.712 195.308 246.536 194.03 248.736C193.004 250.503 192.408 252.19 191.978 253.341C191.549 254.493 189.11 256.22 189.11 256.22C189.11 256.22 188.249 259.243 185.381 259.819C185.381 259.819 183.374 262.554 181.08 262.266C181.08 262.266 177.351 267.736 174.482 265.145C171.614 262.554 171.758 258.811 174.053 259.243C174.053 259.243 169.751 256.796 171.614 254.35C173.478 251.903 175.2 253.629 175.2 253.629C175.2 253.629 171.758 251.471 172.905 249.455C174.052 247.44 175.917 247.872 177.064 248.592C177.064 248.592 176.778 247.296 178.355 246.288C179.933 245.28 181.653 246.001 183.661 246.72C185.669 247.44 188.351 247.521 189.211 246.8C190.008 246.132 193.087 236.732 197.042 236.866Z" fill="#F9AE8F"/>
<path d="M177.779 249.023C177.779 249.023 180.217 250.607 181.078 249.023C181.939 247.44 179.213 246.72 179.213 246.72C179.213 246.72 177.923 248.304 177.779 249.023Z" fill="#F79071"/>
<path d="M173.047 250.895C173.047 250.895 174.772 252.627 175.915 251.758C177.057 250.889 175.342 248.88 174.768 248.736C174.194 248.592 173.047 250.895 173.047 250.895Z" fill="#F79071"/>
<path d="M171.756 256.364C171.756 256.364 173.334 258.096 174.624 257.228C175.915 256.359 173.764 254.493 173.764 254.493C173.764 254.493 172.187 255.501 171.756 256.364Z" fill="#F79071"/>
<path d="M173.334 259.98C173.334 259.98 174.768 260.556 174.624 261.275C174.481 261.994 173.771 262.671 172.764 261.973C171.757 261.276 173.334 259.98 173.334 259.98Z" fill="#F79071"/>
<path d="M185.491 38.4863C185.491 38.4863 173.367 54.1103 157.706 55.0775C142.045 56.0447 143.731 74.5467 134.214 76.9652C124.696 79.3837 121.657 105.052 108.132 94.3177C97.7708 86.095 77.2307 100.79 85.0014 125.999C87.8059 135.098 93.8564 175.517 78.3714 185.13C64.1561 193.957 30.3036 169.894 53.0124 128.962C61.2144 114.177 70.3592 114.935 63.4931 100.908C56.6271 86.8808 55.4101 62.9848 71.7969 57.9856C85.7215 53.7384 95.4966 49.7155 95.057 38.5118C94.394 21.647 121.5 -7.01574 153.426 1.56979C181.455 9.10696 186.531 24.1922 185.491 38.4863Z" fill="#452321"/>
<path d="M165.114 81.6208C165.114 81.6208 165.356 79.6855 162.705 80.1695C160.334 80.6016 156.922 79.4403 156.199 78.9598C156.199 78.9598 156.761 83.3292 157.284 84.6437C158.01 86.4578 162.224 86.941 161.983 83.0712C161.986 83.0712 165.114 82.8296 165.114 81.6208Z" fill="#F9646E"/>
<path d="M174.184 59.2937C174.403 59.2508 174.391 59.2499 174.752 59.0084C175.285 58.651 175.066 57.249 173.427 55.8642C171.139 53.9289 169.331 52.7201 165.356 52.236C165.356 52.236 168.127 53.3245 170.533 55.1386C172.939 56.9527 172.941 58.5243 173.303 58.8871C173.52 59.1023 173.792 59.3703 174.184 59.2937Z" fill="#452321"/>
<path d="M169.375 64.3422C169.024 64.1389 168.306 63.674 168.155 63.1799C168.118 63.0541 168.035 62.9469 167.923 62.88C167.042 62.3613 163.552 60.2509 162.725 58.9309C162.717 58.9198 162.707 58.9115 162.694 58.9073C162.682 58.9031 162.668 58.9032 162.656 58.9076C162.643 58.912 162.633 58.9204 162.625 58.9316C162.618 58.9428 162.615 58.956 162.616 58.9692C162.728 59.9045 163.191 62.6101 164.873 63.6029C166.756 64.7151 168.436 64.7023 169.35 64.5045C169.366 64.4995 169.381 64.49 169.392 64.4771C169.403 64.4642 169.411 64.4483 169.413 64.4314C169.416 64.4144 169.414 64.3971 169.407 64.3813C169.4 64.3655 169.389 64.352 169.375 64.3422Z" fill="#452321"/>
<path d="M168.509 77.4201C168.555 77.431 168.603 77.4269 168.647 77.4084C168.69 77.3899 168.726 77.358 168.751 77.3174C168.775 77.2767 168.785 77.2294 168.781 77.1823C168.776 77.1352 168.757 77.0908 168.725 77.0555C168.16 76.4319 166.966 75.4046 165.356 75.5741C163.457 75.7747 167.03 77.0573 168.509 77.4201Z" fill="#F79071"/>
<path d="M185.397 38.5447L184.838 39.3214C184.645 39.5851 184.451 39.847 184.254 40.1072C183.86 40.6286 183.46 41.1452 183.053 41.6569C182.241 42.6791 181.405 43.6819 180.545 44.6652C178.831 46.6345 177.017 48.5143 175.111 50.2971C173.21 52.0846 171.182 53.7299 169.041 55.2198C166.897 56.6911 164.616 57.9801 162.184 58.8872C160.971 59.342 159.719 59.6811 158.444 59.9C157.806 60.0088 157.164 60.0822 156.518 60.1197C155.86 60.1607 155.205 60.2411 154.556 60.3604C153.253 60.595 151.991 61.0191 150.81 61.6193C149.632 62.2283 148.55 63.0106 147.602 63.9402C146.661 64.8724 145.82 65.9015 145.093 67.0105C144.371 68.1102 143.707 69.2466 143.102 70.4154C142.489 71.575 141.91 72.7491 141.301 73.9014C140.693 75.0536 140.054 76.1895 139.303 77.236C138.552 78.2826 137.668 79.2352 136.598 79.9134C136.065 80.2518 135.488 80.5153 134.884 80.6965C134.808 80.7202 134.732 80.7403 134.656 80.7603L134.414 80.8269C134.332 80.8506 134.252 80.8779 134.171 80.9035C134.09 80.929 134.01 80.96 133.931 80.9946C133.615 81.1171 133.309 81.2631 133.015 81.4313C132.433 81.7681 131.89 82.1676 131.395 82.6227C130.905 83.0699 130.444 83.5493 130.017 84.0576C129.177 85.0751 128.402 86.1441 127.695 87.2583C126.267 89.4625 124.987 91.7479 123.529 93.9002C122.803 94.9732 122.026 96.0161 121.145 96.9487C120.71 97.4141 120.238 97.8428 119.733 98.2304C119.236 98.6136 118.692 98.9315 118.115 99.1766C117.544 99.4166 116.936 99.5572 116.318 99.5923C115.699 99.6239 115.078 99.5562 114.48 99.3918C113.273 99.0672 112.149 98.4282 111.119 97.6725C110.991 97.5813 110.863 97.4801 110.737 97.3826L110.352 97.079C110.087 96.8724 109.811 96.6779 109.526 96.4956C108.953 96.1356 108.347 95.8333 107.716 95.5931C107.083 95.3564 106.429 95.1817 105.763 95.0717C105.098 94.9641 104.425 94.9168 103.751 94.9304C102.408 94.9671 101.079 95.2131 99.8114 95.6596C98.5487 96.0991 97.3462 96.6964 96.2321 97.4373C94.0034 98.9077 92.1252 100.871 90.6584 103.089C89.1994 105.32 88.1248 107.781 87.4797 110.37C86.8354 112.952 86.5578 115.612 86.6551 118.272C86.7517 120.924 87.146 123.556 87.8303 126.119C87.9138 126.44 88.0028 126.757 88.0937 127.076L88.2335 127.552C88.2789 127.706 88.3244 127.857 88.3634 128.008C88.5269 128.623 88.6586 129.254 88.7694 129.889C88.991 131.16 89.1381 132.45 89.2435 133.744C89.4427 136.338 89.4994 138.941 89.4133 141.541C89.3322 144.143 89.1266 146.736 88.7966 149.321C88.4687 151.899 87.9945 154.456 87.3762 156.979C86.7656 159.497 85.9565 161.963 84.9567 164.352C84.4551 165.54 83.8884 166.699 83.2593 167.823C82.6349 168.944 81.932 170.018 81.1559 171.039C80.3854 172.054 79.5241 172.997 78.5829 173.855C78.1133 174.28 77.6219 174.68 77.1107 175.054C76.6026 175.425 76.0724 175.764 75.5231 176.07C74.4259 176.669 73.2445 177.097 72.0193 177.34C70.7914 177.578 69.5357 177.637 68.2911 177.515C65.798 177.273 63.3867 176.33 61.3169 174.892C59.2471 173.454 57.5024 171.546 56.1737 169.384C54.845 167.222 53.9123 164.808 53.3392 162.316C52.7804 159.809 52.5306 157.243 52.5954 154.674C52.6573 152.095 52.9534 149.526 53.48 147.001C54.5208 141.935 56.3309 137.037 58.5578 132.355C59.6722 130.011 60.901 127.723 62.2024 125.47C62.8515 124.343 63.519 123.227 64.205 122.12C64.8871 121.009 65.5891 119.908 66.2721 118.774C66.6127 118.206 66.9496 117.628 67.2593 117.021C67.5836 116.404 67.854 115.759 68.0676 115.095C68.2851 114.407 68.4088 113.693 68.4355 112.972C68.4487 112.615 68.4414 112.258 68.4137 111.903C68.3864 111.55 68.3401 111.203 68.2838 110.862C68.1679 110.19 68.0163 109.525 67.8297 108.87C67.6481 108.221 67.4473 107.585 67.2366 106.955C66.8134 105.697 66.3539 104.465 65.8898 103.236C65.6591 102.623 65.4148 102.004 65.1977 101.413C64.9806 100.822 64.7772 100.205 64.5928 99.5896C64.224 98.3601 63.9172 97.1126 63.6737 95.852C63.1883 93.3277 62.9266 90.7652 62.8918 88.1945C62.8531 85.6222 63.0355 83.0514 63.4367 80.5105C63.8315 77.9755 64.4702 75.4849 65.3439 73.0736C66.2222 70.6752 67.3602 68.3734 68.8024 66.294C70.2446 64.2146 71.9966 62.365 74.0518 60.9474C75.076 60.2384 76.1742 59.6435 77.3269 59.1734C77.9022 58.9384 78.4901 58.7357 79.0879 58.5663L79.5629 58.4296C79.7245 58.3849 79.8844 58.3384 80.0442 58.2864C80.3648 58.1898 80.68 58.0841 81.0005 57.9783C83.5462 57.1162 85.9675 55.9208 88.2017 54.423C90.441 52.9207 92.4543 51.1043 94.1805 49.0291C95.9151 46.9491 97.3083 44.6048 98.3074 42.0844C98.8046 40.8186 99.1858 39.5099 99.4463 38.1745C99.7109 36.8327 99.8327 35.4664 99.8096 34.0987L99.7987 33.6065C99.7932 33.4506 99.7987 33.2947 99.7941 33.1388C99.7941 32.8261 99.8059 32.5135 99.8259 32.2017C99.864 31.575 99.9334 30.9507 100.034 30.3311C100.238 29.0834 100.548 27.8556 100.961 26.6609C101.784 24.2607 102.97 21.978 104.397 19.8594C105.835 17.7378 107.498 15.7791 109.357 14.0178C113.069 10.489 117.514 7.71133 122.353 6.03489C124.773 5.19273 127.282 4.63923 129.83 4.38579C132.381 4.13598 134.952 4.1972 137.488 4.56811C138.758 4.75346 140.015 5.0131 141.254 5.34571C142.494 5.68115 143.715 6.08499 144.91 6.55541C145.21 6.6721 145.506 6.79608 145.803 6.92006C146.1 7.04404 146.393 7.1744 146.691 7.30932L148.479 8.10788L152.051 9.70776C156.806 11.8528 161.549 14.0251 166.171 16.4272C168.479 17.6287 170.758 18.8886 172.958 20.276C174.057 20.9707 175.137 21.6954 176.182 22.4639C176.701 22.8513 177.22 23.2424 177.721 23.6535C177.976 23.855 178.22 24.0683 178.47 24.2753C178.719 24.4822 178.96 24.6992 179.196 24.9207C180.158 25.7882 181.05 26.7311 181.863 27.7403C182.268 28.2443 182.647 28.7701 182.995 29.3155C183.342 29.858 183.656 30.4212 183.935 31.002C184.791 32.7553 185.287 34.6629 185.396 36.612C185.429 37.2558 185.429 37.9008 185.397 38.5447ZM185.552 38.5994C185.608 37.9361 185.626 37.2701 185.605 36.6048C185.538 34.6183 185.075 32.6655 184.243 30.8616C183.966 30.2611 183.653 29.6784 183.304 29.1168C182.959 28.5534 182.583 28.0093 182.179 27.4869C181.369 26.4428 180.478 25.4647 179.514 24.5615C177.6 22.7483 175.472 21.1886 173.279 19.75C171.087 18.3115 168.809 17.0061 166.508 15.7599C161.895 13.2776 157.172 11.0378 152.44 8.81985L148.886 7.17166L147.107 6.35121C146.813 6.21447 146.509 6.07773 146.207 5.94373C145.906 5.80972 145.6 5.68118 145.293 5.5572C144.065 5.05636 142.811 4.62421 141.535 4.26272C140.258 3.90242 138.961 3.61721 137.65 3.40854C135.021 2.99099 132.352 2.897 129.701 3.12868C127.048 3.36655 124.434 3.91732 121.91 4.76957C116.865 6.46699 112.22 9.29936 108.33 12.9385C106.378 14.7614 104.629 16.7916 103.114 18.9934C101.583 21.2033 100.351 23.6072 99.4499 26.1422C98.9999 27.4204 98.6596 28.7349 98.4327 30.0713C98.3199 30.7436 98.2408 31.4211 98.1957 32.1014C98.1721 32.4424 98.1602 32.7842 98.1557 33.1261C98.1557 33.2974 98.1557 33.4688 98.1557 33.6402L98.1648 34.1297C98.2057 36.6275 97.6825 39.1354 96.7598 41.4791C95.8206 43.8327 94.5133 46.0207 92.8872 47.9607C91.2606 49.9082 89.3644 51.6117 87.2563 53.0192C85.1406 54.4283 82.8507 55.5542 80.4447 56.3684C80.1432 56.4687 79.8426 56.569 79.5365 56.6601C79.3848 56.7085 79.2332 56.7513 79.0824 56.7969L78.6174 56.93C77.9593 57.1159 77.3119 57.3384 76.6784 57.5964C75.4118 58.1124 74.2049 58.7653 73.0792 59.5436C70.8295 61.0933 68.9286 63.0988 67.3974 65.3222C65.8661 67.5456 64.6682 69.9778 63.7518 72.4939C62.845 75.0096 62.1865 77.6086 61.7856 80.2535C61.3803 82.8899 61.202 85.5565 61.2525 88.2237C61.2978 90.892 61.5817 93.5509 62.1007 96.1683C62.3618 97.4788 62.6886 98.7752 63.0798 100.053C63.2759 100.692 63.49 101.326 63.7219 101.953C63.958 102.592 64.1978 103.184 64.4312 103.796C64.8989 105.013 65.3594 106.23 65.7771 107.451C65.986 108.062 66.1822 108.673 66.3566 109.285C66.5323 109.887 66.676 110.498 66.7871 111.116C66.8379 111.42 66.8779 111.722 66.9052 112.028C66.9293 112.324 66.9372 112.622 66.9288 112.92C66.9099 113.508 66.8115 114.091 66.6363 114.652C66.4509 115.235 66.2161 115.801 65.9343 116.344C65.6518 116.904 65.333 117.459 65.0042 118.014C64.344 119.124 63.6419 120.234 62.9635 121.355C62.2851 122.476 61.6067 123.607 60.9546 124.749C59.6486 127.028 58.4116 129.364 57.2899 131.752C56.1618 134.141 55.1596 136.587 54.2874 139.081C53.4137 141.583 52.7106 144.141 52.1831 146.739C51.6536 149.345 51.36 151.994 51.3057 154.653C51.2649 157.316 51.5037 159.995 52.1131 162.605C52.7225 165.214 53.7088 167.745 55.1302 170.033C56.5515 172.321 58.407 174.352 60.6385 175.882C61.7549 176.65 62.9593 177.28 64.2259 177.759C65.497 178.24 66.8262 178.549 68.1785 178.678C69.5349 178.806 70.9026 178.736 72.2391 178.47C73.577 178.2 74.8663 177.727 76.0626 177.068C78.4358 175.734 80.4111 173.838 82.0259 171.711C82.8312 170.647 83.5597 169.526 84.2056 168.358C84.8485 167.195 85.4267 165.998 85.9376 164.771C86.9479 162.325 87.7627 159.803 88.3743 157.227C88.9895 154.662 89.4583 152.063 89.7784 149.445C90.1029 146.831 90.2982 144.205 90.3642 141.566C90.4388 138.931 90.3684 136.293 90.1535 133.666C90.04 132.351 89.881 131.037 89.6494 129.729C89.5323 129.076 89.3933 128.424 89.218 127.775C89.1735 127.613 89.1272 127.449 89.0782 127.29L88.9383 126.825C88.8475 126.514 88.7567 126.202 88.6777 125.889C87.9984 123.392 87.6024 120.826 87.497 118.239C87.3918 115.658 87.6495 113.074 88.2626 110.564C88.8754 108.059 89.9039 105.674 91.3051 103.511C92.7101 101.364 94.5102 99.4647 96.639 98.0417C97.6993 97.3293 98.8444 96.7532 100.048 96.3269C101.245 95.9003 102.501 95.6629 103.771 95.6232C104.403 95.6071 105.034 95.6482 105.658 95.7462C106.281 95.8457 106.892 96.0057 107.484 96.2239C108.074 96.4449 108.641 96.7243 109.177 97.0581C109.444 97.2258 109.702 97.4063 109.952 97.5996L110.338 97.9013C110.471 98.0025 110.604 98.1028 110.738 98.2003C111.278 98.5965 111.845 98.9521 112.437 99.2642C113.036 99.5812 113.668 99.8301 114.322 100.006C114.985 100.184 115.672 100.255 116.358 100.217C117.046 100.175 117.722 100.015 118.356 99.7455C118.981 99.4772 119.568 99.1301 120.105 98.7126C120.635 98.3024 121.13 97.849 121.585 97.3571C122.493 96.3835 123.279 95.3141 124.014 94.222C125.48 92.0342 126.749 89.7415 128.155 87.5491C128.844 86.4504 129.601 85.3961 130.421 84.3922C130.831 83.8976 131.273 83.4307 131.744 82.9947C132.21 82.5625 132.721 82.1823 133.268 81.8606C133.54 81.7038 133.823 81.567 134.115 81.4513C134.188 81.4231 134.262 81.3975 134.335 81.3702C134.409 81.3428 134.483 81.3219 134.558 81.2991L134.787 81.2353C134.868 81.2125 134.95 81.1915 135.031 81.166C135.677 80.9684 136.293 80.6832 136.863 80.3182C137.426 79.953 137.947 79.5249 138.414 79.0419C138.877 78.5634 139.302 78.0496 139.685 77.505C140.456 76.4238 141.095 75.2688 141.703 74.1065C142.312 72.9442 142.884 71.7673 143.488 70.6105C144.08 69.4529 144.732 68.3271 145.441 67.2375C146.145 66.1513 146.962 65.143 147.878 64.2292C148.795 63.3215 149.842 62.5562 150.984 61.9584C152.131 61.3691 153.358 60.9506 154.626 60.7159C155.261 60.5956 155.901 60.5131 156.545 60.4688C157.202 60.4273 157.856 60.3497 158.504 60.2364C159.799 60.0045 161.069 59.6504 162.298 59.1789C164.757 58.2482 167.052 56.9373 169.2 55.4459C171.344 53.9401 173.374 52.2787 175.275 50.4749C177.178 48.6762 178.986 46.7806 180.695 44.7956C181.55 43.8068 182.383 42.7979 183.194 41.769C183.599 41.2549 183.998 40.7359 184.389 40.212C184.585 39.9494 184.78 39.6857 184.971 39.4207L185.258 39.0214L185.4 38.8209L185.47 38.7197C185.495 38.6841 185.515 38.6595 185.552 38.5994Z" fill="#452321"/>
<path d="M181.533 28.145C180.944 29.1201 180.292 30.0556 179.581 30.9454C178.168 32.7351 176.574 34.3732 174.825 35.8335C173.951 36.56 173.036 37.2348 172.084 37.8545C171.612 38.1708 171.122 38.4562 170.631 38.7442L169.885 39.1517C169.761 39.2219 169.634 39.2839 169.507 39.3468L169.126 39.5346L168.745 39.7233L168.356 39.8947L167.968 40.0661C167.838 40.1217 167.711 40.1837 167.577 40.232L166.786 40.5392C166.655 40.593 166.521 40.6376 166.387 40.6823L165.984 40.8172L165.582 40.9521C165.448 40.9986 165.309 41.0315 165.175 41.0716L164.358 41.3022L163.531 41.4927C163.393 41.5237 163.259 41.5574 163.118 41.5839L162.701 41.6577C162.422 41.706 162.144 41.758 161.865 41.8036L161.025 41.9084L160.605 41.9595L160.179 42.0014L159.328 42.0844C157.057 42.3068 154.787 42.5228 152.516 42.8136C151.381 42.9549 150.246 43.1281 149.119 43.3169C147.992 43.5056 146.864 43.7398 145.745 44.0033C144.626 44.2667 143.52 44.5895 142.427 44.9614C141.334 45.34 140.264 45.7823 139.223 46.286C138.183 46.8048 137.183 47.4008 136.232 48.0691L135.531 48.5896C135.301 48.7719 135.077 48.9615 134.856 49.1466L134.689 49.287C134.632 49.332 134.577 49.3801 134.525 49.431L134.206 49.7309C133.995 49.9324 133.775 50.1238 133.579 50.3417L132.978 50.9798L132.416 51.6508C132.223 51.8705 132.053 52.1066 131.881 52.3436L131.62 52.6955C131.578 52.7547 131.529 52.8122 131.491 52.8723L131.371 53.0546L130.893 53.7839C130.81 53.9043 130.743 54.0337 130.669 54.1595L130.451 54.5387L130.233 54.918C130.16 55.0438 130.101 55.1769 130.034 55.3063L129.641 56.0876C129.515 56.3501 129.405 56.619 129.287 56.8852C129.169 57.1514 129.047 57.4167 128.951 57.6902C128.747 58.2371 128.534 58.7841 128.352 59.3174C127.973 60.3967 127.589 61.4733 127.202 62.5472C126.423 64.694 125.613 66.8272 124.732 68.9285C123.865 71.0265 122.89 73.0782 121.812 75.0754C121.539 75.5732 121.258 76.0609 120.972 76.5468C120.685 77.0327 120.384 77.5085 120.07 77.9753C119.755 78.442 119.434 78.9042 119.101 79.3518C118.935 79.5779 118.76 79.7958 118.588 80.0164C118.417 80.237 118.238 80.4503 118.053 80.6545C117.69 81.0799 117.311 81.4865 116.917 81.8742C116.722 82.0711 116.518 82.2571 116.315 82.4449C116.113 82.6327 115.901 82.8095 115.685 82.98C114.839 83.6742 113.91 84.26 112.92 84.7239C112.428 84.9499 111.92 85.14 111.4 85.2927C111.27 85.3283 111.142 85.3711 111.009 85.4003L110.615 85.4915L110.217 85.5671C110.086 85.5954 109.95 85.6082 109.817 85.6291C108.74 85.773 107.649 85.7687 106.574 85.6164C106.438 85.6018 106.301 85.5772 106.169 85.5544C106.036 85.5316 105.896 85.5134 105.765 85.4833L105.364 85.3994L104.944 85.3082C104.379 85.1824 103.81 85.0712 103.24 84.97C102.669 84.8688 102.095 84.7877 101.521 84.7048C100.947 84.6218 100.371 84.5635 99.7957 84.5142C97.4819 84.3014 95.1535 84.3014 92.8397 84.5142C90.5118 84.7224 88.2148 85.1945 85.9927 85.9217C83.7694 86.6638 81.6188 87.7058 79.707 89.1261C78.7462 89.8359 77.8584 90.6403 77.0569 91.5272C76.8534 91.7478 76.6636 91.983 76.4711 92.2091C76.2785 92.4352 76.0987 92.6795 75.9261 92.9247C75.572 93.4104 75.2457 93.916 74.9489 94.4389C74.6505 94.9607 74.3813 95.4988 74.1424 96.0506C73.9008 96.6004 73.6886 97.1628 73.5067 97.7353C73.4104 98.0197 73.3359 98.3105 73.2533 98.5986C73.1706 98.8866 73.1025 99.172 73.048 99.4819C73.0199 99.6342 72.9854 99.7873 72.9627 99.9377L72.9009 100.394C72.8909 100.469 72.8791 100.545 72.8709 100.621L72.8519 100.845L72.8137 101.295C72.747 102.474 72.754 103.657 72.8346 104.835C72.9063 106.001 73.0217 107.156 73.1643 108.304C73.7419 112.894 74.6338 117.396 75.4938 121.894C75.9325 124.142 76.3712 126.386 76.7944 128.632C77.2176 130.879 77.6281 133.125 78.0087 135.378C78.3892 137.632 78.7352 139.883 79.0368 142.142C79.1812 143.273 79.3192 144.404 79.4364 145.536L79.5272 146.386L79.6062 147.236C79.6634 147.803 79.7034 148.37 79.7497 148.937C79.9241 151.207 79.9998 153.478 79.9768 155.752C79.9559 156.887 79.9205 158.023 79.826 159.153C79.7897 159.72 79.7216 160.283 79.6662 160.847C79.6326 161.128 79.5917 161.409 79.5553 161.69L79.499 162.111L79.4309 162.531C79.2584 163.65 79.0234 164.759 78.7271 165.852C78.4354 166.946 78.0651 168.017 77.6191 169.057L77.4501 169.446L77.3657 169.641L77.2748 169.831L76.8952 170.59L76.4747 171.327C76.4075 171.452 76.3294 171.569 76.2513 171.691L76.0197 172.048C75.3919 172.994 74.6688 173.873 73.8618 174.671L73.9726 174.793C75.6938 173.246 77.0842 171.365 78.0595 169.264C78.5608 168.22 78.9822 167.139 79.3201 166.031C79.6648 164.927 79.9471 163.804 80.1657 162.667L80.251 162.242L80.3219 161.814C80.3682 161.529 80.4191 161.243 80.4618 160.958C80.5371 160.386 80.6243 159.813 80.6797 159.239C80.8114 158.09 80.8841 156.938 80.9431 155.785C80.9613 155.208 80.9921 154.631 80.993 154.053L81.003 153.187V152.322V151.89L80.994 151.458L80.974 150.594C80.9531 150.019 80.9331 149.443 80.905 148.867C80.6815 144.264 80.1148 139.694 79.4409 135.151C78.767 130.609 77.9306 126.096 77.1077 121.593C76.6918 119.342 76.2767 117.094 75.8916 114.847L75.6055 113.161C75.5147 112.598 75.4194 112.037 75.3331 111.474C75.1569 110.35 74.9961 109.225 74.859 108.101C74.7219 106.977 74.602 105.854 74.5293 104.735C74.4487 103.628 74.4368 102.518 74.4939 101.41L74.5266 101.005L74.542 100.802C74.5493 100.735 74.5584 100.67 74.5666 100.603L74.6174 100.205C74.6356 100.074 74.6637 99.9468 74.6864 99.8165C74.7264 99.5621 74.8018 99.2914 74.8617 99.027C74.9353 98.7654 74.9998 98.4992 75.0851 98.2412C75.2441 97.7207 75.4309 97.2092 75.6446 96.7088C75.856 96.2098 76.0946 95.7229 76.3594 95.2502C77.4288 93.3432 78.8826 91.6809 80.6279 90.3695C82.3708 89.0422 84.3652 88.0358 86.4596 87.312C88.5723 86.5969 90.759 86.1244 92.9778 85.9035C95.2079 85.6753 97.4542 85.6521 99.6885 85.8342C100.248 85.8771 100.806 85.9391 101.363 86.0047C101.921 86.0703 102.475 86.1542 103.029 86.2481C103.583 86.342 104.134 86.445 104.683 86.5626L105.1 86.6538L105.536 86.7449C105.681 86.7759 105.829 86.7933 105.975 86.8188C106.121 86.8443 106.269 86.8671 106.417 86.8826C107.604 87.04 108.808 87.0342 109.994 86.8653C110.142 86.8416 110.292 86.8252 110.439 86.7933L110.88 86.7021L111.318 86.5945C111.464 86.5599 111.606 86.5116 111.75 86.4705C112.325 86.2969 112.886 86.0818 113.429 85.827C114.503 85.313 115.51 84.6669 116.426 83.9035C116.657 83.7211 116.88 83.5197 117.097 83.3246C117.314 83.1295 117.528 82.9216 117.733 82.7111C118.149 82.2942 118.545 81.8615 118.923 81.4129C119.115 81.1914 119.294 80.9571 119.478 80.7338C119.663 80.5105 119.842 80.2725 120.008 80.0364C120.355 79.5678 120.684 79.0874 121.001 78.6006C121.319 78.1138 121.622 77.6188 121.919 77.1202C122.216 76.6215 122.497 76.1174 122.768 75.6051C123.844 73.5649 124.814 71.4703 125.674 69.3296C126.543 67.2001 127.337 65.045 128.098 62.8809C128.478 61.7991 128.852 60.7158 129.22 59.631C129.402 59.084 129.598 58.5608 129.79 58.0311C129.881 57.764 129.999 57.5088 130.108 57.2499C130.217 56.991 130.323 56.7302 130.442 56.4759L130.813 55.7193C130.876 55.5944 130.932 55.4649 131.002 55.3437L131.208 54.979L131.413 54.6144C131.483 54.4932 131.546 54.3664 131.625 54.2498L132.079 53.5424L132.192 53.3655C132.231 53.3072 132.273 53.2516 132.314 53.195L132.56 52.855C132.726 52.6289 132.884 52.3992 133.067 52.1868L133.599 51.5377L134.169 50.9224C134.35 50.7118 134.562 50.5258 134.762 50.3308L135.064 50.04C135.114 49.9906 135.165 49.9437 135.22 49.8996L135.379 49.7628C135.593 49.5805 135.802 49.3982 136.015 49.2213L136.684 48.7136C137.595 48.0563 138.554 47.4685 139.553 46.9551C140.561 46.4534 141.598 46.0109 142.658 45.6296C143.721 45.254 144.807 44.9359 145.903 44.6524C146.999 44.3688 148.111 44.1419 149.227 43.9358C150.343 43.7298 151.466 43.552 152.594 43.398C154.846 43.0798 157.113 42.8383 159.38 42.5894L160.231 42.4982L160.656 42.4517L161.083 42.3943L161.939 42.2776C162.223 42.2284 162.505 42.1719 162.788 42.1199L163.212 42.0397C163.353 42.0078 163.492 41.9722 163.632 41.9394L164.471 41.7352L165.299 41.4909C165.437 41.4481 165.572 41.4134 165.712 41.3642L166.12 41.2229L166.526 41.0752C166.663 41.0287 166.799 40.984 166.931 40.9257L167.732 40.6039C167.866 40.5529 167.995 40.489 168.127 40.4307L168.519 40.2484L168.911 40.0661L169.296 39.871L169.681 39.675C169.809 39.6103 169.937 39.5464 170.061 39.4735L170.813 39.0514C171.304 38.7533 171.798 38.4598 172.266 38.1325C173.22 37.4932 174.136 36.7989 175.01 36.0532C176.751 34.5591 178.334 32.8884 179.733 31.0676C180.437 30.1608 181.082 29.2086 181.663 28.217L181.533 28.145Z" fill="#2D1716"/>
<path d="M176.26 22.1421C174.963 22.8495 173.626 23.4849 172.273 24.0884C170.919 24.6919 169.548 25.2461 168.164 25.7639C166.78 26.2817 165.377 26.7539 163.964 27.1824L163.434 27.3419L163.169 27.4221L162.902 27.496L161.834 27.7922C161.119 27.9746 160.406 28.1633 159.685 28.3191C158.967 28.4914 158.242 28.6264 157.52 28.7749L156.43 28.9627C156.248 28.9928 156.066 29.0275 155.885 29.0539L155.34 29.1314L154.795 29.208C154.613 29.2344 154.432 29.2608 154.25 29.2791L153.153 29.3985C152.971 29.4204 152.79 29.434 152.603 29.4468L152.053 29.4878C151.69 29.5152 151.32 29.5471 150.952 29.5544L149.852 29.5963C149.488 29.6009 149.117 29.5963 148.75 29.5963H148.2L147.649 29.5726C147.286 29.5553 146.916 29.5443 146.55 29.5216L145.46 29.4249L145.188 29.4012L145.052 29.3885L144.915 29.3702L144.371 29.2964L143.826 29.2216C143.644 29.197 143.462 29.1761 143.281 29.1378L142.203 28.9354L141.93 28.8853C141.839 28.8661 141.749 28.8424 141.663 28.8214L141.131 28.692L140.599 28.5625L140.332 28.4978L140.059 28.4276C139.333 28.2325 138.595 28.0785 137.853 27.9463C137.111 27.8141 136.359 27.7257 135.606 27.6646C134.851 27.6049 134.093 27.5875 133.336 27.6126C132.576 27.6367 131.818 27.7045 131.065 27.8159C130.312 27.931 129.567 28.0923 128.834 28.2991C127.364 28.7166 125.953 29.3165 124.632 30.0849C123.316 30.8566 122.089 31.7703 120.971 32.8097C119.86 33.8439 118.839 34.9724 117.92 36.1827C116.078 38.5921 114.603 41.2485 113.368 43.9906C113.057 44.6761 112.764 45.3689 112.481 46.0654L112.273 46.5905C112.204 46.7728 112.134 46.9497 112.071 47.1293C111.939 47.4939 111.822 47.8522 111.708 48.2141C111.254 49.6635 110.899 51.1212 110.554 52.5725C110.209 54.0237 109.877 55.4696 109.515 56.8999C109.154 58.3302 108.761 59.7441 108.288 61.1161C108.053 61.8016 107.796 62.4771 107.511 63.1325C107.231 63.7828 106.91 64.4146 106.551 65.0241C105.844 66.2274 104.947 67.2867 103.844 67.9722C103.774 68.0142 103.704 68.0534 103.634 68.0944L103.529 68.1546L103.421 68.2084L103.204 68.3168L102.982 68.408C102.944 68.4235 102.908 68.4408 102.87 68.4545L102.755 68.4937C102.679 68.5201 102.604 68.5484 102.528 68.573C102.37 68.6131 102.218 68.6642 102.058 68.6942L101.819 68.7453L101.578 68.7808L101.456 68.7991C101.416 68.8045 101.374 68.8064 101.333 68.81L101.088 68.8319C100.923 68.8401 100.757 68.8447 100.59 68.8465L100.34 68.8401C100.256 68.8401 100.173 68.8401 100.089 68.8283C99.92 68.8146 99.752 68.8073 99.5831 68.7808L99.3306 68.7489C99.2461 68.7389 99.1617 68.7198 99.0772 68.7061L98.8238 68.6605C98.7394 68.6441 98.6549 68.6231 98.5704 68.6049L98.317 68.5475L98.0446 68.4828C97.298 68.3004 96.546 68.1628 95.7913 68.0506C92.7715 67.6195 89.729 67.6423 86.7328 67.9741C85.2368 68.1453 83.7512 68.3982 82.2826 68.7316C81.5488 68.8994 80.8177 69.0844 80.0947 69.295C79.3718 69.5056 78.6552 69.7444 77.9468 70.0024C76.5251 70.5121 75.1463 71.1352 73.8236 71.8657C72.493 72.5951 71.251 73.4767 70.1226 74.493C69.0082 75.524 68.0283 76.7301 67.3735 78.1121C67.0485 78.8008 66.8126 79.5284 66.6714 80.2771C66.5346 81.0206 66.4971 81.779 66.5597 82.5324L66.7232 82.5261C66.7206 81.0587 67.0924 79.615 67.803 78.3327C68.5105 77.0664 69.495 75.9762 70.6121 75.0591C71.74 74.1429 72.9686 73.3592 74.274 72.7235C75.5793 72.0783 76.9316 71.5337 78.3192 71.0945C81.1013 70.2177 83.9719 69.6542 86.8782 69.4144C88.3278 69.2913 89.7831 69.2475 91.2376 69.2831C92.6827 69.3147 94.124 69.4447 95.5516 69.6724C96.2618 69.7864 96.9656 69.9276 97.6577 70.1018L98.2099 70.2358C98.3062 70.2577 98.4015 70.2832 98.4987 70.3032L98.7911 70.3588C98.8892 70.3762 98.9864 70.398 99.0854 70.4117L99.3824 70.4536C99.5795 70.4856 99.782 70.4983 99.9827 70.5175C100.803 70.5857 101.63 70.532 102.435 70.3579C103.254 70.1804 104.037 69.8648 104.751 69.4244C105.448 68.9849 106.078 68.4457 106.621 67.8237C107.147 67.2231 107.612 66.5715 108.009 65.8783C108.399 65.2032 108.743 64.5028 109.039 63.7816C109.338 63.0705 109.599 62.3513 109.836 61.6284C110.768 58.7304 111.342 55.7886 111.98 52.8943C112.3 51.4475 112.63 50.0108 113.04 48.6143C113.144 48.266 113.251 47.9196 113.369 47.5787C113.426 47.4082 113.488 47.2396 113.55 47.0718L113.745 46.5577C114.011 45.8721 114.29 45.1903 114.579 44.5193C115.749 41.831 117.149 39.2402 118.889 36.9047C119.747 35.7387 120.702 34.6484 121.745 33.6457C122.791 32.6484 123.942 31.769 125.178 31.023C127.033 29.9051 129.081 29.1478 131.215 28.7904C131.928 28.6743 132.646 28.5991 133.368 28.5653C134.091 28.5302 134.816 28.5357 135.538 28.5817C136.265 28.6291 136.985 28.702 137.703 28.8196C138.422 28.9372 139.137 29.074 139.846 29.2526L140.112 29.3174L140.384 29.3793L140.935 29.5042L141.484 29.6291C141.575 29.6492 141.666 29.672 141.757 29.6902L142.035 29.7376L143.144 29.9263C143.326 29.9619 143.515 29.9801 143.701 30.0029L144.26 30.0685L144.817 30.1342L144.957 30.1506L145.097 30.1606L145.378 30.1806L146.498 30.259C146.872 30.2764 147.246 30.28 147.619 30.2919L148.18 30.3055L148.741 30.2973C149.114 30.29 149.487 30.2873 149.861 30.2764L150.98 30.2144C151.352 30.1989 151.723 30.1606 152.095 30.1232L152.652 30.0713C152.834 30.0548 153.023 30.0375 153.208 30.012L154.317 29.8716C154.499 29.8506 154.687 29.8197 154.87 29.7905L155.423 29.6993L155.975 29.6082C156.156 29.579 156.338 29.5407 156.52 29.507L157.617 29.2973C158.343 29.1369 159.07 28.9873 159.796 28.8014C160.523 28.6309 161.236 28.4267 161.954 28.2316L163.023 27.9144L163.29 27.8351L163.556 27.7503L164.087 27.5798C165.502 27.1228 166.901 26.6223 168.285 26.0784C169.668 25.5345 171.03 24.9453 172.372 24.3108C173.715 23.6772 175.043 23.0145 176.335 22.2743L176.26 22.1421Z" fill="#2D1716"/>
<path d="M97.6623 99.3288C97.8094 99.2522 104.254 96.0251 108.936 107.739C113.673 119.59 111.303 179.383 112.42 185.792C114.035 195.046 136.349 176.676 136.349 176.676C136.349 176.676 160.84 163.949 162.616 159.605C163.9 156.464 163.372 151.674 164.535 149.304C163.819 149.252 163.286 149.227 163.152 149.272C163.152 149.272 162.153 150.275 162.153 152.87C162.153 155.466 163.73 158.34 156.704 162.227C151.085 165.334 127.486 179.735 118.25 185.382C116.71 186.324 114.756 185.119 114.896 183.315C116.092 168.028 119.015 116.637 106.268 97.1628C106.158 96.9932 106.046 96.8282 105.932 96.6632C102.727 96.6268 99.9201 97.4381 97.6623 99.3288Z" fill="#F79071"/>
</g>
<defs>
<clipPath id="clip0_1_105">
<rect width="294" height="324" fill="white" transform="matrix(-1 0 0 1 294 0)"/>
</clipPath>
</defs>
</svg>
