<svg width="134" height="44" viewBox="0 0 134 44" fill="none" xmlns="http://www.w3.org/2000/svg">
<g clip-path="url(#clip0_1_186)">
<path fill-rule="evenodd" clip-rule="evenodd" d="M15.0791 1.9128C13.7915 0.840391 11.9317 0.318642 9.52814 0.318642H4.32061L0 21.0137H5.46506L6.86705 14.1444H8.06875C10.8442 14.1444 13.0187 13.4777 14.6212 12.1155C16.2234 10.7533 17.0246 8.89827 17.0246 6.52148C17.0246 4.52155 16.3665 2.98538 15.079 1.91296L15.0791 1.9128ZM8.84149 4.84025H9.67117C10.272 4.84025 10.7298 5.01422 11.0446 5.362C11.3879 5.68087 11.5597 6.14463 11.5597 6.69529C11.5597 7.5359 11.3021 8.23146 10.7871 8.78213C10.2435 9.33279 9.55668 9.62274 8.727 9.62274H7.84008L8.84149 4.84025Z" fill="#393765"/>
<path fill-rule="evenodd" clip-rule="evenodd" d="M25.8952 13.4775L28.6133 21.0135H34.5649L34.0213 19.6512L30.8739 12.3471C32.1901 11.7674 33.1629 10.9268 33.821 9.85454C34.4791 8.75305 34.8224 7.47775 34.8224 5.99957C34.8224 4.08654 34.1931 2.66635 32.9341 1.73883C31.7037 0.782401 29.9011 0.318642 27.5548 0.318642H22.147L17.8264 21.0137H23.2915L24.8652 13.4777H25.8953L25.8952 13.4775ZM26.725 4.5503H27.4689C28.0984 4.5503 28.5561 4.6952 28.8709 5.01406C29.1856 5.30401 29.3572 5.76777 29.3572 6.34735C29.3572 7.27487 29.0997 7.9995 28.5846 8.49234C28.041 9.01393 27.3542 9.2748 26.4673 9.2748H25.752L26.7248 4.5503H26.725Z" fill="#393765"/>
<path fill-rule="evenodd" clip-rule="evenodd" d="M42.7768 1.65231C41.1172 2.75379 39.8296 4.34796 38.8567 6.43479C37.9125 8.52163 37.426 10.8404 37.426 13.333C37.426 15.8256 38.1127 17.7967 39.4576 19.1879C40.831 20.6083 42.7766 21.3038 45.2659 21.3038C47.412 21.3038 49.3003 20.7532 50.9313 19.6517C52.5623 18.5213 53.8498 16.9271 54.7654 14.8692C55.7096 12.7824 56.1674 10.4925 56.1674 7.9708C56.1674 5.44912 55.5093 3.50718 54.1645 2.1159C52.7911 0.695712 50.9313 -7.62939e-06 48.4992 -7.62939e-06C46.3246 -7.62939e-06 44.4361 0.550656 42.7766 1.65214L42.7768 1.65231ZM49.9873 12.3766C49.558 13.7099 48.9859 14.7534 48.2133 15.536C47.4407 16.3186 46.6395 16.7244 45.7526 16.7244C43.8928 16.7244 42.9485 15.594 42.9485 13.3043C42.9485 11.855 43.1775 10.4348 43.6351 9.04354C44.0929 7.65226 44.7225 6.55093 45.4949 5.76831C46.2675 4.98569 47.1259 4.57992 48.0415 4.57992C48.8999 4.57992 49.5295 4.86971 49.9873 5.47836C50.4165 6.08701 50.6454 6.95654 50.6454 8.02912C50.6454 9.5942 50.4451 11.0435 49.9873 12.3768V12.3766Z" fill="#393765"/>
<path fill-rule="evenodd" clip-rule="evenodd" d="M59.5365 26.8104C60.5664 26.3178 61.425 25.5351 62.0829 24.4627C62.741 23.4192 63.2561 21.941 63.6566 20.0571L67.8341 0.318642H62.369L58.3346 19.3615C58.0485 20.6368 57.6765 21.5643 57.1615 22.115C56.6464 22.6657 55.9025 22.9556 54.9011 22.9556C54.1858 22.9556 53.3846 22.8396 52.469 22.6078V27.1295C53.4704 27.3903 54.4433 27.5352 55.4447 27.5352C57.1044 27.5352 58.4777 27.3034 59.5363 26.8106L59.5365 26.8104Z" fill="#393765"/>
<path fill-rule="evenodd" clip-rule="evenodd" d="M81.2557 16.463H74.5889L75.39 12.55H81.5991L82.6006 8.05749H76.3916L77.0496 4.81118H83.7165L84.6321 0.318642H72.5001L68.1797 21.0135H80.3115L81.2557 16.463Z" fill="#393765"/>
<path fill-rule="evenodd" clip-rule="evenodd" d="M98.3654 4.98537C99.1095 5.24625 99.9106 5.65202 100.769 6.17376L102.829 1.85504C100.826 0.608654 98.5657 0 96.1051 0C94.0163 0 92.1565 0.521749 90.5255 1.59416C88.8945 2.66658 87.6071 4.26074 86.6627 6.34757C85.7186 8.43441 85.2607 10.7532 85.2607 13.246C85.2607 15.8256 85.9188 17.7965 87.2065 19.1878C88.5227 20.6081 90.3825 21.3037 92.8146 21.3037C95.0177 21.3037 97.0779 20.8688 98.9663 20.0284V15.4488C97.8791 15.9125 96.9635 16.2314 96.1622 16.4343C95.361 16.6372 94.5884 16.7241 93.8158 16.7241C92.843 16.7241 92.0991 16.4054 91.5555 15.7966C91.0404 15.1588 90.7829 14.2313 90.7829 12.956C90.7829 11.4488 91.0117 10.0575 91.4695 8.75327C91.9273 7.4489 92.5854 6.43448 93.3866 5.70985C94.1877 4.98521 95.1033 4.60836 96.1049 4.60836C96.906 4.60836 97.6499 4.72434 98.3653 4.98521L98.3654 4.98537Z" fill="#393765"/>
<path fill-rule="evenodd" clip-rule="evenodd" d="M113.899 4.89808H118.334L119.336 0.318642H104.972L103.999 4.89808H108.434L105.115 21.0135H110.58L113.899 4.89808Z" fill="#393765"/>
<path fill-rule="evenodd" clip-rule="evenodd" d="M70.6014 44.0004L71.0239 41.9629H65.7339L68.3487 29.4528H66.0155L62.9783 44.0004H70.6014Z" fill="#4F5150"/>
<path fill-rule="evenodd" clip-rule="evenodd" d="M76.8787 44.0004L79.9359 29.4528H77.6227L74.5657 44.0004H76.8787Z" fill="#4F5150"/>
<path fill-rule="evenodd" clip-rule="evenodd" d="M85.7262 38.0305H90.634L91.0765 36.0135H86.1487L87.0939 31.4903H92.3638L92.7861 29.4528H85.1832L82.146 44.0004H84.4791L85.7262 38.0305Z" fill="#4F5150"/>
<path fill-rule="evenodd" clip-rule="evenodd" d="M101.878 41.9833H96.5879L97.5332 37.4397H102.481L102.883 35.4225H97.9555L98.7802 31.4903H104.07L104.493 29.4528H96.8695L93.8323 44.0004H101.455L101.878 41.9833Z" fill="#4F5150"/>
<path fill-rule="evenodd" clip-rule="evenodd" d="M65.3304 24.8854H106.395C106.875 24.8854 107.282 25.2447 107.346 25.7268L108.884 37.2281L111.267 25.4674C111.358 25.0152 111.751 24.691 112.206 24.691H116.122L119.761 8.55678C119.861 8.11439 120.249 7.80147 120.696 7.80147C120.701 7.80147 120.706 7.80147 120.711 7.80163C121.164 7.8087 121.55 8.13575 121.638 8.58602L124.766 24.7207H133.04C133.57 24.7207 134 25.1557 134 25.6926C134 26.2294 133.57 26.6644 133.04 26.6644H123.977C123.518 26.6644 123.124 26.3356 123.035 25.88L120.626 13.4503L117.821 25.8794C117.722 26.3212 117.334 26.6347 116.886 26.6347H112.989L109.63 43.2142C109.539 43.6676 109.144 43.9908 108.691 43.9908C108.68 43.9908 108.669 43.9906 108.658 43.9904C108.191 43.9744 107.803 43.619 107.74 43.1495L105.557 26.8291H65.3301V24.8854H65.3304Z" fill="#C8353A"/>
<path fill-rule="evenodd" clip-rule="evenodd" d="M15.0791 1.9128C13.7915 0.840391 11.9317 0.318642 9.52814 0.318642H4.32061L0 21.0137H5.46506L6.86705 14.1444H8.06875C10.8442 14.1444 13.0187 13.4777 14.6212 12.1155C16.2234 10.7533 17.0246 8.89827 17.0246 6.52148C17.0246 4.52155 16.3665 2.98538 15.079 1.91296L15.0791 1.9128ZM8.84149 4.84025H9.67117C10.272 4.84025 10.7298 5.01422 11.0446 5.362C11.3879 5.68087 11.5597 6.14463 11.5597 6.69529C11.5597 7.5359 11.3021 8.23146 10.7871 8.78213C10.2435 9.33279 9.55668 9.62274 8.727 9.62274H7.84008L8.84149 4.84025Z" fill="#393765"/>
<path fill-rule="evenodd" clip-rule="evenodd" d="M25.8952 13.4775L28.6133 21.0135H34.5649L34.0213 19.6512L30.8739 12.3471C32.1901 11.7674 33.1629 10.9268 33.821 9.85454C34.4791 8.75305 34.8224 7.47775 34.8224 5.99957C34.8224 4.08654 34.1931 2.66635 32.9341 1.73883C31.7037 0.782401 29.9011 0.318642 27.5548 0.318642H22.147L17.8264 21.0137H23.2915L24.8652 13.4777H25.8953L25.8952 13.4775ZM26.725 4.5503H27.4689C28.0984 4.5503 28.5561 4.6952 28.8709 5.01406C29.1856 5.30401 29.3572 5.76777 29.3572 6.34735C29.3572 7.27487 29.0997 7.9995 28.5846 8.49234C28.041 9.01393 27.3542 9.2748 26.4673 9.2748H25.752L26.7248 4.5503H26.725Z" fill="#393765"/>
<path fill-rule="evenodd" clip-rule="evenodd" d="M42.7768 1.65231C41.1172 2.75379 39.8296 4.34796 38.8567 6.43479C37.9125 8.52163 37.426 10.8404 37.426 13.333C37.426 15.8256 38.1127 17.7967 39.4576 19.1879C40.831 20.6083 42.7766 21.3038 45.2659 21.3038C47.412 21.3038 49.3003 20.7532 50.9313 19.6517C52.5623 18.5213 53.8498 16.9271 54.7654 14.8692C55.7096 12.7824 56.1674 10.4925 56.1674 7.9708C56.1674 5.44912 55.5093 3.50718 54.1645 2.1159C52.7911 0.695712 50.9313 -7.62939e-06 48.4992 -7.62939e-06C46.3246 -7.62939e-06 44.4361 0.550656 42.7766 1.65214L42.7768 1.65231ZM49.9873 12.3766C49.558 13.7099 48.9859 14.7534 48.2133 15.536C47.4407 16.3186 46.6395 16.7244 45.7526 16.7244C43.8928 16.7244 42.9485 15.594 42.9485 13.3043C42.9485 11.855 43.1775 10.4348 43.6351 9.04354C44.0929 7.65226 44.7225 6.55093 45.4949 5.76831C46.2675 4.98569 47.1259 4.57992 48.0415 4.57992C48.8999 4.57992 49.5295 4.86971 49.9873 5.47836C50.4165 6.08701 50.6454 6.95654 50.6454 8.02912C50.6454 9.5942 50.4451 11.0435 49.9873 12.3768V12.3766Z" fill="#393765"/>
<path fill-rule="evenodd" clip-rule="evenodd" d="M59.5365 26.8104C60.5664 26.3178 61.425 25.5351 62.0829 24.4627C62.741 23.4192 63.2561 21.941 63.6566 20.0571L67.8341 0.318642H62.369L58.3346 19.3615C58.0485 20.6368 57.6765 21.5643 57.1615 22.115C56.6464 22.6657 55.9025 22.9556 54.9011 22.9556C54.1858 22.9556 53.3846 22.8396 52.469 22.6078V27.1295C53.4704 27.3903 54.4433 27.5352 55.4447 27.5352C57.1044 27.5352 58.4777 27.3034 59.5363 26.8106L59.5365 26.8104Z" fill="#393765"/>
<path fill-rule="evenodd" clip-rule="evenodd" d="M81.2557 16.463H74.5889L75.39 12.55H81.5991L82.6006 8.05749H76.3916L77.0496 4.81118H83.7165L84.6321 0.318642H72.5001L68.1797 21.0135H80.3115L81.2557 16.463Z" fill="#393765"/>
<path fill-rule="evenodd" clip-rule="evenodd" d="M98.3654 4.98537C99.1095 5.24625 99.9106 5.65202 100.769 6.17376L102.829 1.85504C100.826 0.608654 98.5657 0 96.1051 0C94.0163 0 92.1565 0.521749 90.5255 1.59416C88.8945 2.66658 87.6071 4.26074 86.6627 6.34757C85.7186 8.43441 85.2607 10.7532 85.2607 13.246C85.2607 15.8256 85.9188 17.7965 87.2065 19.1878C88.5227 20.6081 90.3825 21.3037 92.8146 21.3037C95.0177 21.3037 97.0779 20.8688 98.9663 20.0284V15.4488C97.8791 15.9125 96.9635 16.2314 96.1622 16.4343C95.361 16.6372 94.5884 16.7241 93.8158 16.7241C92.843 16.7241 92.0991 16.4054 91.5555 15.7966C91.0404 15.1588 90.7829 14.2313 90.7829 12.956C90.7829 11.4488 91.0117 10.0575 91.4695 8.75327C91.9273 7.4489 92.5854 6.43448 93.3866 5.70985C94.1877 4.98521 95.1033 4.60836 96.1049 4.60836C96.906 4.60836 97.6499 4.72434 98.3653 4.98521L98.3654 4.98537Z" fill="#393765"/>
<path fill-rule="evenodd" clip-rule="evenodd" d="M113.899 4.89808H118.334L119.336 0.318642H104.972L103.999 4.89808H108.434L105.115 21.0135H110.58L113.899 4.89808Z" fill="#393765"/>
<path fill-rule="evenodd" clip-rule="evenodd" d="M70.6014 44.0004L71.0239 41.9629H65.7339L68.3487 29.4528H66.0155L62.9783 44.0004H70.6014Z" fill="#4F5150"/>
<path fill-rule="evenodd" clip-rule="evenodd" d="M76.8787 44.0004L79.9359 29.4528H77.6227L74.5657 44.0004H76.8787Z" fill="#4F5150"/>
<path fill-rule="evenodd" clip-rule="evenodd" d="M85.7262 38.0305H90.634L91.0765 36.0135H86.1487L87.0939 31.4903H92.3638L92.7861 29.4528H85.1832L82.146 44.0004H84.4791L85.7262 38.0305Z" fill="#4F5150"/>
<path fill-rule="evenodd" clip-rule="evenodd" d="M101.878 41.9833H96.5879L97.5332 37.4397H102.481L102.883 35.4225H97.9555L98.7802 31.4903H104.07L104.493 29.4528H96.8695L93.8323 44.0004H101.455L101.878 41.9833Z" fill="#4F5150"/>
<path fill-rule="evenodd" clip-rule="evenodd" d="M65.3304 24.8854H106.395C106.875 24.8854 107.282 25.2447 107.346 25.7268L108.884 37.2281L111.267 25.4674C111.358 25.0152 111.751 24.691 112.206 24.691H116.122L119.761 8.55678C119.861 8.11439 120.249 7.80147 120.696 7.80147C120.701 7.80147 120.706 7.80147 120.711 7.80163C121.164 7.8087 121.55 8.13575 121.638 8.58602L124.766 24.7207H133.04C133.57 24.7207 134 25.1557 134 25.6926C134 26.2294 133.57 26.6644 133.04 26.6644H123.977C123.518 26.6644 123.124 26.3356 123.035 25.88L120.626 13.4503L117.821 25.8794C117.722 26.3212 117.334 26.6347 116.886 26.6347H112.989L109.63 43.2142C109.539 43.6676 109.144 43.9908 108.691 43.9908C108.68 43.9908 108.669 43.9906 108.658 43.9904C108.191 43.9744 107.803 43.619 107.74 43.1495L105.557 26.8291H65.3301V24.8854H65.3304Z" fill="#C8353A"/>
<path fill-rule="evenodd" clip-rule="evenodd" d="M15.0791 1.9128C13.7915 0.840391 11.9317 0.318642 9.52814 0.318642H4.32061L0 21.0137H5.46506L6.86705 14.1444H8.06875C10.8442 14.1444 13.0187 13.4777 14.6212 12.1155C16.2234 10.7533 17.0246 8.89827 17.0246 6.52148C17.0246 4.52155 16.3665 2.98538 15.079 1.91296L15.0791 1.9128ZM8.84149 4.84025H9.67117C10.272 4.84025 10.7298 5.01422 11.0446 5.362C11.3879 5.68087 11.5597 6.14463 11.5597 6.69529C11.5597 7.5359 11.3021 8.23146 10.7871 8.78213C10.2435 9.33279 9.55668 9.62274 8.727 9.62274H7.84008L8.84149 4.84025Z" fill="#393765"/>
<path fill-rule="evenodd" clip-rule="evenodd" d="M25.8952 13.4775L28.6133 21.0135H34.5649L34.0213 19.6512L30.8739 12.3471C32.1901 11.7674 33.1629 10.9268 33.821 9.85454C34.4791 8.75305 34.8224 7.47775 34.8224 5.99957C34.8224 4.08654 34.1931 2.66635 32.9341 1.73883C31.7037 0.782401 29.9011 0.318642 27.5548 0.318642H22.147L17.8264 21.0137H23.2915L24.8652 13.4777H25.8953L25.8952 13.4775ZM26.725 4.5503H27.4689C28.0984 4.5503 28.5561 4.6952 28.8709 5.01406C29.1856 5.30401 29.3572 5.76777 29.3572 6.34735C29.3572 7.27487 29.0997 7.9995 28.5846 8.49234C28.041 9.01393 27.3542 9.2748 26.4673 9.2748H25.752L26.7248 4.5503H26.725Z" fill="#393765"/>
<path fill-rule="evenodd" clip-rule="evenodd" d="M42.7768 1.65231C41.1172 2.75379 39.8296 4.34796 38.8567 6.43479C37.9125 8.52163 37.426 10.8404 37.426 13.333C37.426 15.8256 38.1127 17.7967 39.4576 19.1879C40.831 20.6083 42.7766 21.3038 45.2659 21.3038C47.412 21.3038 49.3003 20.7532 50.9313 19.6517C52.5623 18.5213 53.8498 16.9271 54.7654 14.8692C55.7096 12.7824 56.1674 10.4925 56.1674 7.9708C56.1674 5.44912 55.5093 3.50718 54.1645 2.1159C52.7911 0.695712 50.9313 -7.62939e-06 48.4992 -7.62939e-06C46.3246 -7.62939e-06 44.4361 0.550656 42.7766 1.65214L42.7768 1.65231ZM49.9873 12.3766C49.558 13.7099 48.9859 14.7534 48.2133 15.536C47.4407 16.3186 46.6395 16.7244 45.7526 16.7244C43.8928 16.7244 42.9485 15.594 42.9485 13.3043C42.9485 11.855 43.1775 10.4348 43.6351 9.04354C44.0929 7.65226 44.7225 6.55093 45.4949 5.76831C46.2675 4.98569 47.1259 4.57992 48.0415 4.57992C48.8999 4.57992 49.5295 4.86971 49.9873 5.47836C50.4165 6.08701 50.6454 6.95654 50.6454 8.02912C50.6454 9.5942 50.4451 11.0435 49.9873 12.3768V12.3766Z" fill="#393765"/>
<path fill-rule="evenodd" clip-rule="evenodd" d="M59.5365 26.8104C60.5664 26.3178 61.425 25.5351 62.0829 24.4627C62.741 23.4192 63.2561 21.941 63.6566 20.0571L67.8341 0.318642H62.369L58.3346 19.3615C58.0485 20.6368 57.6765 21.5643 57.1615 22.115C56.6464 22.6657 55.9025 22.9556 54.9011 22.9556C54.1858 22.9556 53.3846 22.8396 52.469 22.6078V27.1295C53.4704 27.3903 54.4433 27.5352 55.4447 27.5352C57.1044 27.5352 58.4777 27.3034 59.5363 26.8106L59.5365 26.8104Z" fill="#393765"/>
<path fill-rule="evenodd" clip-rule="evenodd" d="M81.2557 16.463H74.5889L75.39 12.55H81.5991L82.6006 8.05749H76.3916L77.0496 4.81118H83.7165L84.6321 0.318642H72.5001L68.1797 21.0135H80.3115L81.2557 16.463Z" fill="#393765"/>
<path fill-rule="evenodd" clip-rule="evenodd" d="M98.3654 4.98537C99.1095 5.24625 99.9106 5.65202 100.769 6.17376L102.829 1.85504C100.826 0.608654 98.5657 0 96.1051 0C94.0163 0 92.1565 0.521749 90.5255 1.59416C88.8945 2.66658 87.6071 4.26074 86.6627 6.34757C85.7186 8.43441 85.2607 10.7532 85.2607 13.246C85.2607 15.8256 85.9188 17.7965 87.2065 19.1878C88.5227 20.6081 90.3825 21.3037 92.8146 21.3037C95.0177 21.3037 97.0779 20.8688 98.9663 20.0284V15.4488C97.8791 15.9125 96.9635 16.2314 96.1622 16.4343C95.361 16.6372 94.5884 16.7241 93.8158 16.7241C92.843 16.7241 92.0991 16.4054 91.5555 15.7966C91.0404 15.1588 90.7829 14.2313 90.7829 12.956C90.7829 11.4488 91.0117 10.0575 91.4695 8.75327C91.9273 7.4489 92.5854 6.43448 93.3866 5.70985C94.1877 4.98521 95.1033 4.60836 96.1049 4.60836C96.906 4.60836 97.6499 4.72434 98.3653 4.98521L98.3654 4.98537Z" fill="#393765"/>
<path fill-rule="evenodd" clip-rule="evenodd" d="M113.899 4.89808H118.334L119.336 0.318642H104.972L103.999 4.89808H108.434L105.115 21.0135H110.58L113.899 4.89808Z" fill="#393765"/>
<path fill-rule="evenodd" clip-rule="evenodd" d="M70.6014 44.0004L71.0239 41.9629H65.7339L68.3487 29.4528H66.0155L62.9783 44.0004H70.6014Z" fill="#4F5150"/>
<path fill-rule="evenodd" clip-rule="evenodd" d="M76.8787 44.0004L79.9359 29.4528H77.6227L74.5657 44.0004H76.8787Z" fill="#4F5150"/>
<path fill-rule="evenodd" clip-rule="evenodd" d="M85.7262 38.0305H90.634L91.0765 36.0135H86.1487L87.0939 31.4903H92.3638L92.7861 29.4528H85.1832L82.146 44.0004H84.4791L85.7262 38.0305Z" fill="#4F5150"/>
<path fill-rule="evenodd" clip-rule="evenodd" d="M101.878 41.9833H96.5879L97.5332 37.4397H102.481L102.883 35.4225H97.9555L98.7802 31.4903H104.07L104.493 29.4528H96.8695L93.8323 44.0004H101.455L101.878 41.9833Z" fill="#4F5150"/>
<path fill-rule="evenodd" clip-rule="evenodd" d="M65.3304 24.8854H106.395C106.875 24.8854 107.282 25.2447 107.346 25.7268L108.884 37.2281L111.267 25.4674C111.358 25.0152 111.751 24.691 112.206 24.691H116.122L119.761 8.55678C119.861 8.11439 120.249 7.80147 120.696 7.80147C120.701 7.80147 120.706 7.80147 120.711 7.80163C121.164 7.8087 121.55 8.13575 121.638 8.58602L124.766 24.7207H133.04C133.57 24.7207 134 25.1557 134 25.6926C134 26.2294 133.57 26.6644 133.04 26.6644H123.977C123.518 26.6644 123.124 26.3356 123.035 25.88L120.626 13.4503L117.821 25.8794C117.722 26.3212 117.334 26.6347 116.886 26.6347H112.989L109.63 43.2142C109.539 43.6676 109.144 43.9908 108.691 43.9908C108.68 43.9908 108.669 43.9906 108.658 43.9904C108.191 43.9744 107.803 43.619 107.74 43.1495L105.557 26.8291H65.3301V24.8854H65.3304Z" fill="#C8353A"/>
</g>
<defs>
<clipPath id="clip0_1_186">
<rect width="134" height="44" fill="white"/>
</clipPath>
</defs>
</svg>
