<svg width="21" height="13" viewBox="0 0 21 13" fill="none" xmlns="http://www.w3.org/2000/svg">
<path d="M20.3389 5.95367C20.1612 5.71052 15.9261 0 10.517 0C5.10799 0 0.872659 5.71052 0.695106 5.95343C0.526762 6.18411 0.526762 6.49698 0.695106 6.72765C0.872659 6.9708 5.10799 12.6813 10.517 12.6813C15.9261 12.6813 20.1612 6.97077 20.3389 6.72785C20.5075 6.49721 20.5075 6.18411 20.3389 5.95367ZM10.517 11.3695C6.5327 11.3695 3.08184 7.57928 2.06032 6.34021C3.08052 5.10006 6.52415 1.31185 10.517 1.31185C14.5012 1.31185 17.9518 5.10138 18.9737 6.34111C17.9535 7.58122 14.5099 11.3695 10.517 11.3695Z" fill="#BEC5D3"/>
<path d="M10.5171 2.40509C8.34709 2.40509 6.58154 4.17064 6.58154 6.34069C6.58154 8.51074 8.34709 10.2763 10.5171 10.2763C12.6872 10.2763 14.4527 8.51074 14.4527 6.34069C14.4527 4.17064 12.6872 2.40509 10.5171 2.40509ZM10.5171 8.9644C9.07036 8.9644 7.89343 7.78743 7.89343 6.34069C7.89343 4.89395 9.0704 3.71698 10.5171 3.71698C11.9639 3.71698 13.1408 4.89395 13.1408 6.34069C13.1408 7.78743 11.9639 8.9644 10.5171 8.9644Z" fill="#BEC5D3"/>
</svg>
