<svg width="50" height="51" viewBox="0 0 50 51" fill="none" xmlns="http://www.w3.org/2000/svg">
<circle cx="25" cy="25.0566" r="25" fill="white"/>
<g clip-path="url(#clip0_1_3640)">
<path d="M25.5 13.0566C22.0107 13.0566 19.1719 15.8954 19.1719 19.3848C19.1719 22.8741 22.0107 25.7129 25.5 25.7129C28.9893 25.7129 31.8281 22.8741 31.8281 19.3848C31.8281 15.8954 28.9893 13.0566 25.5 13.0566Z" fill="#FC5285"/>
<path d="M33.3734 29.847C31.6409 28.0879 29.3442 27.1191 26.9062 27.1191H24.0938C21.6559 27.1191 19.3591 28.0879 17.6266 29.847C15.9026 31.5975 14.9531 33.9082 14.9531 36.3535C14.9531 36.7418 15.2679 37.0566 15.6562 37.0566H35.3438C35.7321 37.0566 36.0469 36.7418 36.0469 36.3535C36.0469 33.9082 35.0974 31.5975 33.3734 29.847Z" fill="#FC5285"/>
</g>
<defs>
<clipPath id="clip0_1_3640">
<rect width="24" height="24" fill="white" transform="translate(13.5 13.0566)"/>
</clipPath>
</defs>
</svg>
