<svg width="35" height="35" viewBox="0 0 35 35" fill="none" xmlns="http://www.w3.org/2000/svg">
<circle cx="17.5" cy="17.8047" r="16" fill="white"/>
<g clip-path="url(#clip0_1_3667)">
<path d="M23.8158 20.181C22.8905 20.181 21.9842 20.0365 21.1253 19.7531C20.706 19.6086 20.23 19.7199 19.9545 20.001L18.2516 21.2871C16.2976 20.2442 15.0471 18.9944 14.0184 17.0547L15.2697 15.3921C15.5847 15.0771 15.6976 14.616 15.5626 14.1842C15.2768 13.3197 15.1316 12.4126 15.1316 11.4889C15.1316 10.836 14.6003 10.3047 13.9474 10.3047H11.1842C10.5313 10.3047 10 10.836 10 11.4889C10 19.1065 16.1982 25.3047 23.8158 25.3047C24.4687 25.3047 25 24.7734 25 24.1205V21.3652C25 20.7123 24.4687 20.181 23.8158 20.181Z" fill="#45C652"/>
</g>
<defs>
<clipPath id="clip0_1_3667">
<rect width="15" height="15" fill="white" transform="translate(10 10.3047)"/>
</clipPath>
</defs>
</svg>
