<svg width="40" height="36" viewBox="0 0 40 36" fill="none" xmlns="http://www.w3.org/2000/svg">
<circle cx="28.8994" cy="25.5" r="10.5" fill="#FD72A4" fill-opacity="0.3"/>
<g clip-path="url(#clip0_1_712)">
<path d="M33.9011 28.1745C33.9009 28.1745 33.9007 28.1745 33.9005 28.1745L31.9945 28.1767L31.9925 26.5691C31.9921 26.294 31.769 26.0712 31.494 26.0712C31.4938 26.0712 31.4936 26.0712 31.4934 26.0712C31.2181 26.0716 30.9953 26.295 30.9956 26.5703L30.9977 28.1778L23.5412 28.1865L23.5338 21.7994L28.6943 21.7934C28.9577 21.7932 29.2051 21.6903 29.391 21.504C29.577 21.3177 29.6792 21.07 29.6789 20.8067L29.6729 15.5993C29.6726 15.336 29.5697 15.0885 29.3834 14.9026C29.1973 14.717 28.9502 14.6148 28.6873 14.6148C28.6869 14.6148 28.6865 14.6148 28.686 14.6148L23.5254 14.6207L23.523 12.5595L30.9795 12.551L30.9929 24.3106C30.9932 24.5858 31.2163 24.8085 31.4913 24.8085H31.4919C31.7672 24.8082 31.9901 24.5848 31.9898 24.3096L31.9764 12.5499L32.9575 12.5488C33.7148 12.5477 34.33 11.9309 34.329 11.1739L34.3277 9.86661C34.3267 9.10948 33.7106 8.4943 32.9541 8.4943C32.9535 8.4943 32.9528 8.4943 32.9523 8.4943L29.7597 8.49763C29.4845 8.49789 29.2615 8.72132 29.2619 8.99658C29.2621 9.2717 29.4852 9.49446 29.7603 9.49446H29.7608L32.9535 9.49114H32.9539C33.1615 9.49114 33.3306 9.66007 33.3309 9.86781L33.3322 11.1751C33.3325 11.3826 33.1637 11.5517 32.9562 11.5519L23.5219 11.5626L23.5195 9.50184L27.5013 9.49712C27.7766 9.49679 27.9995 9.27336 27.9991 8.9981C27.9988 8.72304 27.7757 8.50028 27.5007 8.50028C27.5005 8.50028 27.5003 8.50028 27.5001 8.50028L23.5184 8.505L23.5156 6.1647C23.5152 5.7972 23.3717 5.45183 23.1115 5.19232C22.8517 4.93314 22.5067 4.79053 22.1398 4.79053C22.1393 4.79053 22.1387 4.79053 22.1382 4.79053L12.6051 4.80156C12.2376 4.80196 11.8922 4.9455 11.6327 5.20568C11.3732 5.46585 11.2304 5.81149 11.2309 6.17899L11.2336 8.51936L1.7991 8.53032C1.4322 8.53072 1.08743 8.67413 0.82832 8.93411C0.569408 9.19388 0.42706 9.53899 0.427525 9.90576L0.428987 11.2133C0.429386 11.5801 0.572664 11.9248 0.83224 12.1838C1.09148 12.4424 1.43586 12.5848 1.80203 12.5848H1.80376L2.79042 12.5837V14.076C2.79042 14.3512 3.01358 14.5744 3.28884 14.5744C3.5641 14.5744 3.78726 14.3512 3.78726 14.076V12.5825L11.2382 12.5738L11.2406 14.6349L6.08031 14.6409C5.81695 14.6411 5.56954 14.7439 5.38359 14.9303C5.19765 15.1166 5.09544 15.3643 5.09577 15.6277L5.10175 20.8351C5.10209 21.0984 5.20489 21.3458 5.39123 21.5317C5.57731 21.7173 5.82446 21.8195 6.08736 21.8195H6.08862L11.249 21.8136L11.2563 28.2007L3.78733 28.2093V16.3355C3.78733 16.0603 3.56417 15.8371 3.28891 15.8371C3.01365 15.8371 2.79049 16.0603 2.79049 16.3355V28.2105L0.897301 28.2127C0.621975 28.213 0.399082 28.4365 0.399414 28.7117C0.399747 28.9868 0.622772 29.2095 0.897832 29.2095H0.89843L33.9016 29.1713C34.1769 29.171 34.3997 28.9476 34.3994 28.6723C34.3991 28.3973 34.1761 28.1745 33.9011 28.1745ZM28.676 15.6116L28.682 20.7966L23.5326 20.8026L23.5266 15.6176L28.676 15.6116ZM1.80263 11.588C1.80249 11.588 1.80236 11.588 1.80216 11.588C1.70175 11.588 1.60738 11.549 1.53634 11.4782C1.46523 11.4072 1.42596 11.3128 1.42582 11.2121L1.42436 9.90463C1.42423 9.80388 1.4633 9.70918 1.53441 9.63781C1.60539 9.56657 1.69982 9.52729 1.8003 9.52716L11.2348 9.51626L11.2371 11.5771L1.80263 11.588ZM6.09866 20.8228L6.09267 15.6378L11.2418 15.6318L11.2478 20.8169L6.09866 20.8228ZM12.2277 6.17786C12.2275 6.07664 12.2669 5.98141 12.3384 5.90977C12.4099 5.83814 12.505 5.79859 12.6062 5.79846L22.1393 5.78743H22.1398C22.3485 5.78743 22.5185 5.95716 22.5188 6.16596L22.5442 28.1877L21.2986 28.1892L21.2884 19.3995C21.288 18.9794 21.1266 18.5841 20.8342 18.2865C20.5395 17.9867 20.1475 17.8217 19.7299 17.8217C19.7293 17.8217 19.7286 17.8217 19.728 17.8217L15.0456 17.8271C14.6273 17.8276 14.2348 17.9936 13.9405 18.2945C13.6488 18.5928 13.4883 18.9884 13.4889 19.4087L13.499 28.1983L12.2531 28.1997L12.2277 6.17786ZM14.4857 19.4073C14.4855 19.2497 14.545 19.102 14.6531 18.9914C14.7586 18.8835 14.8985 18.824 15.0468 18.8238L19.7292 18.8184H19.7299C19.8779 18.8184 20.0176 18.8776 20.1232 18.9851C20.2316 19.0954 20.2914 19.2429 20.2916 19.4005L20.3018 28.1902L14.4959 28.1969L14.4857 19.4073Z" fill="#FC5285"/>
<path d="M14.1565 13.3016H14.1577L15.8196 13.2997L15.8216 14.9616C15.8222 15.4743 16.2395 15.891 16.7519 15.891H16.7531L18.0161 15.8896C18.2646 15.8893 18.4982 15.7923 18.6737 15.6163C18.8493 15.4404 18.9458 15.2065 18.9454 14.958L18.9435 13.2961L20.6054 13.2941C21.1184 13.2936 21.5354 12.8757 21.5348 12.3626L21.5334 11.0996C21.5331 10.851 21.436 10.6175 21.26 10.4419C21.0843 10.2666 20.8511 10.1702 20.6029 10.1702C20.6026 10.1702 20.6021 10.1702 20.6017 10.1702L18.9398 10.1721L18.9379 8.51026C18.9376 8.26172 18.8406 8.02819 18.6646 7.85261C18.4889 7.6773 18.2556 7.58081 18.0075 7.58081C18.0072 7.58081 18.0067 7.58081 18.0063 7.58081L16.7433 7.58227C16.4948 7.58254 16.2612 7.67963 16.0857 7.8556C15.9102 8.03151 15.8137 8.26537 15.8139 8.51385L15.8159 10.1758L14.154 10.1777C13.9054 10.178 13.6719 10.275 13.4963 10.451C13.3208 10.6269 13.2243 10.8607 13.2246 11.1093L13.2261 12.3722C13.2263 12.6207 13.3234 12.8543 13.4993 13.0298C13.6751 13.2052 13.9084 13.3016 14.1565 13.3016ZM16.3156 11.1721C16.5909 11.1717 16.8138 10.9483 16.8134 10.6731L16.811 8.57911L17.9412 8.57778L17.9436 10.6718C17.9436 10.689 17.9446 10.706 17.9463 10.7227C17.9721 10.9738 18.1842 11.1696 18.442 11.1696H18.4426L20.5366 11.1672L20.5379 12.2974L18.4439 12.2998C18.1686 12.3002 17.9458 12.5236 17.9461 12.7988L17.9485 14.8928L16.8183 14.8941L16.8158 12.8001C16.8155 12.525 16.5925 12.3023 16.3174 12.3023C16.3173 12.3023 16.317 12.3023 16.3168 12.3023L14.2228 12.3047L14.2215 11.1745L16.3156 11.1721Z" fill="#FC5285"/>
</g>
<defs>
<clipPath id="clip0_1_712">
<rect width="34" height="34" fill="white" transform="translate(0.399414)"/>
</clipPath>
</defs>
</svg>
