<svg width="38" height="36" viewBox="0 0 38 36" fill="none" xmlns="http://www.w3.org/2000/svg">
<circle cx="27" cy="25.5" r="10.5" fill="#FD72A4" fill-opacity="0.3"/>
<g clip-path="url(#clip0_1_679)">
<path d="M21.1667 31.9999H1.16667C0.798667 31.9999 0.5 31.7013 0.5 31.3333V25.9999C0.5 23.4266 2.59333 21.3333 5.16667 21.3333H17.1667C19.74 21.3333 21.8333 23.4266 21.8333 25.9999V31.3333C21.8333 31.7013 21.5347 31.9999 21.1667 31.9999ZM1.83333 30.6666H20.5V25.9999C20.5 24.1613 19.0053 22.6666 17.1667 22.6666H5.16667C3.328 22.6666 1.83333 24.1613 1.83333 25.9999V30.6666Z" fill="#FC5285"/>
<path d="M11.1665 18.6667C7.8585 18.6667 5.1665 15.9747 5.1665 12.6667C5.1665 9.35875 7.8585 6.66675 11.1665 6.66675C14.4745 6.66675 17.1665 9.35875 17.1665 12.6667C17.1665 15.9747 14.4745 18.6667 11.1665 18.6667ZM11.1665 8.00008C8.59317 8.00008 6.49984 10.0934 6.49984 12.6667C6.49984 15.2401 8.59317 17.3334 11.1665 17.3334C13.7398 17.3334 15.8332 15.2401 15.8332 12.6667C15.8332 10.0934 13.7398 8.00008 11.1665 8.00008Z" fill="#FC5285"/>
<path d="M15.6961 12.7774C14.1121 12.7774 12.9681 11.7014 12.3774 10.9761C9.40138 13.2667 5.87738 12.6827 5.71738 12.6574C5.35605 12.5934 5.11471 12.2494 5.17738 11.8867C5.24005 11.5254 5.58138 11.2761 5.94671 11.3427C5.98405 11.3494 9.46405 11.9107 12.0467 9.51207C12.1947 9.3734 12.3974 9.31207 12.5974 9.3414C12.7974 9.37074 12.9734 9.49074 13.0761 9.6654C13.1294 9.75607 14.3921 11.8761 16.3254 11.3574C16.6867 11.2587 17.0467 11.4721 17.1427 11.8267C17.2387 12.1827 17.0294 12.5481 16.6734 12.6441C16.3321 12.7361 16.0054 12.7774 15.6961 12.7774Z" fill="#FC5285"/>
<path d="M26.5 14.6667C23.192 14.6667 20.5 11.9747 20.5 8.66667V2C20.5 0.897333 21.3973 0 22.5 0H30.5C31.6027 0 32.5 0.897333 32.5 2V8.66667C32.5 11.9747 29.808 14.6667 26.5 14.6667ZM22.5 1.33333C22.1333 1.33333 21.8333 1.632 21.8333 2V8.66667C21.8333 11.24 23.9267 13.3333 26.5 13.3333C29.0733 13.3333 31.1667 11.24 31.1667 8.66667V2C31.1667 1.632 30.8667 1.33333 30.5 1.33333H22.5Z" fill="#FC5285"/>
<path d="M23.8333 27.9999H21.1667C20.7987 27.9999 20.5 27.7013 20.5 27.3333C20.5 26.9653 20.7987 26.6666 21.1667 26.6666H23.8333C24.936 26.6666 25.8333 25.7693 25.8333 24.6666V13.9999C25.8333 13.6319 26.132 13.3333 26.5 13.3333C26.868 13.3333 27.1667 13.6319 27.1667 13.9999V24.6666C27.1667 26.5053 25.672 27.9999 23.8333 27.9999Z" fill="#FC5285"/>
<path d="M26.5002 9.33333C26.1322 9.33333 25.8335 9.03467 25.8335 8.66667V4.66667C25.8335 4.29867 26.1322 4 26.5002 4C26.8682 4 27.1668 4.29867 27.1668 4.66667V8.66667C27.1668 9.03467 26.8682 9.33333 26.5002 9.33333Z" fill="#FC5285"/>
<path d="M28.5002 7.33333H24.5002C24.1322 7.33333 23.8335 7.03467 23.8335 6.66667C23.8335 6.29867 24.1322 6 24.5002 6H28.5002C28.8682 6 29.1668 6.29867 29.1668 6.66667C29.1668 7.03467 28.8682 7.33333 28.5002 7.33333Z" fill="#FC5285"/>
</g>
<defs>
<clipPath id="clip0_1_679">
<rect width="32" height="32" fill="white" transform="translate(0.5)"/>
</clipPath>
</defs>
</svg>
