<svg width="38" height="36" viewBox="0 0 38 36" fill="none" xmlns="http://www.w3.org/2000/svg">
<circle cx="26.9004" cy="25.5" r="10.5" fill="#FD72A4" fill-opacity="0.3"/>
<g clip-path="url(#clip0_1_662)">
<path d="M21.0671 31.9999H1.06706C0.699057 31.9999 0.400391 31.7013 0.400391 31.3333V25.9999C0.400391 23.4266 2.49372 21.3333 5.06706 21.3333H17.0671C19.6404 21.3333 21.7337 23.4266 21.7337 25.9999V31.3333C21.7337 31.7013 21.4351 31.9999 21.0671 31.9999ZM1.73372 30.6666H20.4004V25.9999C20.4004 24.1613 18.9057 22.6666 17.0671 22.6666H5.06706C3.22839 22.6666 1.73372 24.1613 1.73372 25.9999V30.6666Z" fill="#FC5285"/>
<path d="M11.0669 18.6667C7.75889 18.6667 5.06689 15.9747 5.06689 12.6667C5.06689 9.35875 7.75889 6.66675 11.0669 6.66675C14.3749 6.66675 17.0669 9.35875 17.0669 12.6667C17.0669 15.9747 14.3749 18.6667 11.0669 18.6667ZM11.0669 8.00008C8.49356 8.00008 6.40023 10.0934 6.40023 12.6667C6.40023 15.2401 8.49356 17.3334 11.0669 17.3334C13.6402 17.3334 15.7336 15.2401 15.7336 12.6667C15.7336 10.0934 13.6402 8.00008 11.0669 8.00008Z" fill="#FC5285"/>
<path d="M15.5964 12.7774C14.0124 12.7774 12.8684 11.7014 12.2778 10.9761C9.30177 13.2667 5.77777 12.6827 5.61777 12.6574C5.25644 12.5934 5.0151 12.2494 5.07777 11.8867C5.14044 11.5254 5.48177 11.2761 5.84711 11.3427C5.88444 11.3494 9.36444 11.9107 11.9471 9.51207C12.0951 9.3734 12.2978 9.31207 12.4978 9.3414C12.6978 9.37074 12.8738 9.49074 12.9764 9.6654C13.0298 9.75607 14.2924 11.8761 16.2258 11.3574C16.5871 11.2587 16.9471 11.4721 17.0431 11.8267C17.1391 12.1827 16.9298 12.5481 16.5738 12.6441C16.2324 12.7361 15.9058 12.7774 15.5964 12.7774Z" fill="#FC5285"/>
<path d="M26.4004 14.6667C23.0924 14.6667 20.4004 11.9747 20.4004 8.66667V2C20.4004 0.897333 21.2977 0 22.4004 0H30.4004C31.5031 0 32.4004 0.897333 32.4004 2V8.66667C32.4004 11.9747 29.7084 14.6667 26.4004 14.6667ZM22.4004 1.33333C22.0337 1.33333 21.7337 1.632 21.7337 2V8.66667C21.7337 11.24 23.8271 13.3333 26.4004 13.3333C28.9737 13.3333 31.0671 11.24 31.0671 8.66667V2C31.0671 1.632 30.7671 1.33333 30.4004 1.33333H22.4004Z" fill="#FC5285"/>
<path d="M23.7337 27.9999H21.0671C20.6991 27.9999 20.4004 27.7013 20.4004 27.3333C20.4004 26.9653 20.6991 26.6666 21.0671 26.6666H23.7337C24.8364 26.6666 25.7337 25.7693 25.7337 24.6666V13.9999C25.7337 13.6319 26.0324 13.3333 26.4004 13.3333C26.7684 13.3333 27.0671 13.6319 27.0671 13.9999V24.6666C27.0671 26.5053 25.5724 27.9999 23.7337 27.9999Z" fill="#FC5285"/>
<path d="M26.4006 9.33333C26.0326 9.33333 25.7339 9.03467 25.7339 8.66667V4.66667C25.7339 4.29867 26.0326 4 26.4006 4C26.7686 4 27.0672 4.29867 27.0672 4.66667V8.66667C27.0672 9.03467 26.7686 9.33333 26.4006 9.33333Z" fill="#FC5285"/>
<path d="M28.4006 7.33333H24.4006C24.0326 7.33333 23.7339 7.03467 23.7339 6.66667C23.7339 6.29867 24.0326 6 24.4006 6H28.4006C28.7686 6 29.0672 6.29867 29.0672 6.66667C29.0672 7.03467 28.7686 7.33333 28.4006 7.33333Z" fill="#FC5285"/>
</g>
<defs>
<clipPath id="clip0_1_662">
<rect width="32" height="32" fill="white" transform="translate(0.400391)"/>
</clipPath>
</defs>
</svg>
