<svg width="16" height="17" viewBox="0 0 16 17" fill="none" xmlns="http://www.w3.org/2000/svg">
<g clip-path="url(#clip0_93_676)">
<path d="M2.09525 5.94946H0.46875C0.209875 5.94946 0 6.15934 0 6.41821V16.1247H2.09525V5.94946Z" fill="#BCC1CA"/>
<path d="M15.5313 5.94946H13.9048V16.1247H16V6.41821C16 6.15934 15.7902 5.94946 15.5313 5.94946Z" fill="#BCC1CA"/>
<path d="M8.81494 12.9924V16.1246H7.18469V12.9924H8.81494Z" fill="#BCC1CA"/>
<path d="M12.4985 2.05031H11.0227V0.59375C11.0227 0.334875 10.8128 0.125 10.554 0.125H5.51234C5.25346 0.125 5.04359 0.334875 5.04359 0.59375V2.05031H3.50146C3.24259 2.05031 3.03271 2.26019 3.03271 2.51906V16.125H6.24734V12.5241C6.24734 12.2653 6.45721 12.0554 6.71609 12.0554H9.28384C9.54272 12.0554 9.75259 12.2653 9.75259 12.5241V16.125H12.9672V2.51906C12.9672 2.26019 12.7573 2.05031 12.4985 2.05031ZM5.87737 10.4355H5.37256C5.11368 10.4355 4.90381 10.2256 4.90381 9.96672C4.90381 9.70784 5.11368 9.49797 5.37256 9.49797H5.87737C6.13625 9.49797 6.34612 9.70784 6.34612 9.96672C6.34612 10.2256 6.13625 10.4355 5.87737 10.4355ZM5.87737 8.56047H5.37256C5.11368 8.56047 4.90381 8.35059 4.90381 8.09172C4.90381 7.83284 5.11368 7.62297 5.37256 7.62297H5.87737C6.13625 7.62297 6.34612 7.83284 6.34612 8.09172C6.34612 8.35059 6.13625 8.56047 5.87737 8.56047ZM5.87737 6.68547H5.37256C5.11368 6.68547 4.90381 6.47559 4.90381 6.21672C4.90381 5.95784 5.11368 5.74797 5.37256 5.74797H5.87737C6.13625 5.74797 6.34612 5.95784 6.34612 6.21672C6.34612 6.47559 6.13625 6.68547 5.87737 6.68547ZM8.25237 10.4355H7.74756C7.48868 10.4355 7.27881 10.2256 7.27881 9.96672C7.27881 9.70784 7.48868 9.49797 7.74756 9.49797H8.25237C8.51125 9.49797 8.72112 9.70784 8.72112 9.96672C8.72112 10.2256 8.51125 10.4355 8.25237 10.4355ZM8.25237 8.56047H7.74756C7.48868 8.56047 7.27881 8.35059 7.27881 8.09172C7.27881 7.83284 7.48868 7.62297 7.74756 7.62297H8.25237C8.51125 7.62297 8.72112 7.83284 8.72112 8.09172C8.72112 8.35059 8.51125 8.56047 8.25237 8.56047ZM8.25237 6.68547H7.74756C7.48868 6.68547 7.27881 6.47559 7.27881 6.21672C7.27881 5.95784 7.48868 5.74797 7.74756 5.74797H8.25237C8.51125 5.74797 8.72112 5.95784 8.72112 6.21672C8.72112 6.47559 8.51125 6.68547 8.25237 6.68547ZM8.94468 3.88222H8.46871V4.35819C8.46871 4.61706 8.25884 4.82694 7.99996 4.82694C7.74109 4.82694 7.53121 4.61706 7.53121 4.35819V3.88222H7.05525C6.79637 3.88222 6.5865 3.67234 6.5865 3.41347C6.5865 3.15459 6.79637 2.94472 7.05525 2.94472H7.53121V2.46875C7.53121 2.20988 7.74109 2 7.99996 2C8.25884 2 8.46871 2.20988 8.46871 2.46875V2.94472H8.94468C9.20356 2.94472 9.41343 3.15459 9.41343 3.41347C9.41343 3.67234 9.20356 3.88222 8.94468 3.88222ZM10.6274 10.4355H10.1226C9.86368 10.4355 9.65381 10.2256 9.65381 9.96672C9.65381 9.70784 9.86368 9.49797 10.1226 9.49797H10.6274C10.8862 9.49797 11.0961 9.70784 11.0961 9.96672C11.0961 10.2256 10.8862 10.4355 10.6274 10.4355ZM10.6274 8.56047H10.1226C9.86368 8.56047 9.65381 8.35059 9.65381 8.09172C9.65381 7.83284 9.86368 7.62297 10.1226 7.62297H10.6274C10.8862 7.62297 11.0961 7.83284 11.0961 8.09172C11.0961 8.35059 10.8862 8.56047 10.6274 8.56047ZM10.6274 6.68547H10.1226C9.86368 6.68547 9.65381 6.47559 9.65381 6.21672C9.65381 5.95784 9.86368 5.74797 10.1226 5.74797H10.6274C10.8862 5.74797 11.0961 5.95784 11.0961 6.21672C11.0961 6.47559 10.8862 6.68547 10.6274 6.68547Z" fill="#BCC1CA"/>
</g>
<defs>
<clipPath id="clip0_93_676">
<rect width="16" height="16" fill="white" transform="translate(0 0.125)"/>
</clipPath>
</defs>
</svg>
