<svg width="13" height="14" viewBox="0 0 13 14" fill="none" xmlns="http://www.w3.org/2000/svg">
<g clip-path="url(#clip0_93_668)">
<path d="M12.0521 0.125H0.947917C0.425208 0.125 0 0.550208 0 1.07292V2.42708C0 2.94979 0.425208 3.375 0.947917 3.375H12.0521C12.5748 3.375 13 2.94979 13 2.42708V1.07292C13 0.550208 12.5748 0.125 12.0521 0.125Z" fill="#FC5285"/>
<path d="M0.947916 13.1249H5.01041C5.53312 13.1249 5.95833 12.6997 5.95833 12.177V5.40617C5.95833 4.88346 5.53312 4.45825 5.01041 4.45825H0.947916C0.425208 4.45825 0 4.88346 0 5.40617V12.177C0 12.6997 0.425208 13.1249 0.947916 13.1249Z" fill="#FC5285"/>
<path d="M12.0522 4.45825H7.98966C7.46696 4.45825 7.04175 4.88346 7.04175 5.40617V7.302C7.04175 7.82471 7.46696 8.24992 7.98966 8.24992H12.0522C12.5749 8.24992 13.0001 7.82471 13.0001 7.302V5.40617C13.0001 4.88346 12.5749 4.45825 12.0522 4.45825Z" fill="#FC5285"/>
<path d="M12.0522 9.33325H7.98966C7.46696 9.33325 7.04175 9.75846 7.04175 10.2812V12.177C7.04175 12.6997 7.46696 13.1249 7.98966 13.1249H12.0522C12.5749 13.1249 13.0001 12.6997 13.0001 12.177V10.2812C13.0001 9.75846 12.5749 9.33325 12.0522 9.33325Z" fill="#FC5285"/>
</g>
<defs>
<clipPath id="clip0_93_668">
<rect width="13" height="13" fill="white" transform="translate(0 0.125)"/>
</clipPath>
</defs>
</svg>
