<svg width="16" height="17" viewBox="0 0 16 17" fill="none" xmlns="http://www.w3.org/2000/svg">
<path d="M4.00964 14.4498C4.02564 14.8274 4.33604 15.125 4.71364 15.125H11.2912C11.6688 15.125 11.9808 14.8274 11.9952 14.4498L12.4656 4.533H3.53924L4.00964 14.4498ZM9.48964 6.997C9.48964 6.8386 9.61764 6.7106 9.77604 6.7106H10.2336C10.392 6.7106 10.52 6.8402 10.52 6.997V12.6626C10.52 12.821 10.3904 12.949 10.2336 12.949H9.77604C9.61764 12.949 9.48964 12.821 9.48964 12.6626V6.997ZM7.48804 6.997C7.48804 6.8386 7.61604 6.7106 7.77444 6.7106H8.23204C8.39044 6.7106 8.51844 6.8402 8.51844 6.997V12.6626C8.51844 12.821 8.39044 12.949 8.23204 12.949H7.77444C7.61604 12.949 7.48804 12.821 7.48804 12.6626V6.997ZM5.48484 6.997C5.48484 6.8386 5.61284 6.7106 5.76964 6.7106H6.22724C6.38564 6.7106 6.51364 6.8402 6.51364 6.997V12.6626C6.51364 12.821 6.38404 12.949 6.22724 12.949H5.76964C5.61124 12.949 5.48484 12.821 5.48484 12.6626V6.997ZM12.7776 1.8466H9.74404V1.2722C9.74404 1.1906 9.67844 1.125 9.59684 1.125H6.40964C6.32804 1.125 6.26244 1.1906 6.26244 1.2722V1.8466H3.22724C2.98404 1.8466 2.78564 2.0434 2.78564 2.2882V3.677H13.2192V2.2882C13.2192 2.045 13.0224 1.8466 12.7776 1.8466Z" fill="#FF6760"/>
</svg>