<svg width="16" height="17" viewBox="0 0 16 17" fill="none" xmlns="http://www.w3.org/2000/svg">
<path d="M0 15.4911C0.4448 13.9647 0.888 12.4383 1.3328 10.912C1.368 10.7904 1.4048 10.6688 1.4368 10.5472C1.488 10.3632 1.584 10.2144 1.7312 10.0912C1.8688 9.97755 1.9904 9.84155 2.1168 9.71515C4.2016 7.64956 6.2864 5.58396 8.3696 3.51677C8.4176 3.46877 8.4592 3.41437 8.4928 3.37277C8.776 3.65757 9.0416 3.92477 9.3376 4.22237C9.3056 4.24477 9.2432 4.27677 9.1952 4.32477C7.0352 6.47996 4.8768 8.63516 2.7216 10.7952C2.6448 10.8736 2.5808 10.9808 2.5504 11.0864C2.2912 11.9423 2.0448 12.8031 1.7888 13.6623C1.7568 13.7695 1.7728 13.8367 1.8544 13.9103C1.9872 14.0303 2.104 14.1679 2.2384 14.2863C2.2848 14.3263 2.3728 14.3567 2.4288 14.3423C3.2896 14.0959 4.1488 13.8447 5.0064 13.5855C5.08 13.5631 5.1488 13.5007 5.2064 13.4415C7.3968 11.2576 9.584 9.07036 11.7712 6.88476C11.8128 6.84316 11.848 6.79676 11.872 6.76956C12.1824 7.07996 12.4832 7.38076 12.8128 7.71036C12.7984 7.71996 12.7408 7.74396 12.7008 7.78396C10.544 9.91995 8.384 12.0511 6.2384 14.1983C5.9392 14.4991 5.6144 14.6847 5.2128 14.7983C3.7888 15.2015 2.3712 15.6271 0.9504 16.0447C0.856 16.0719 0.76 16.0975 0.6656 16.1247H0.5376C0.4688 16.0943 0.3984 16.0671 0.3296 16.0351C0.1376 15.9455 0.072 15.7631 0 15.5855V15.4911ZM4.3024 12.8399C4.2608 12.5743 4.216 12.3311 4.1872 12.0879C4.1728 11.9727 4.1264 11.9263 4.0144 11.9055C3.7408 11.8527 3.4704 11.7839 3.2176 11.7279C5.4864 9.45436 7.7552 7.17916 10.0096 4.91837C10.3696 5.27837 10.7456 5.65276 11.1088 6.01436C8.8624 8.26716 6.5952 10.5408 4.3024 12.8399ZM10.8368 1.15038C11.0416 0.950377 11.2464 0.737577 11.4656 0.539178C12.0944 -0.0272209 12.9136 -0.0144209 13.5264 0.583978C14.2032 1.24318 14.8704 1.91037 15.5296 2.58717C16.1536 3.22557 16.144 4.07997 15.5216 4.71677C15.3344 4.90877 15.1408 5.09597 14.9616 5.27197C13.592 3.90397 12.224 2.53757 10.8368 1.15038ZM9.168 2.66077C9.4784 2.36957 9.7968 2.07037 10.0992 1.78557C11.5328 3.21917 12.9584 4.64637 14.3968 6.08476C14.0976 6.36476 13.776 6.66716 13.4656 6.95836L9.168 2.66077Z" fill="#A0A4A8"/>
</svg>
