<svg width="139" height="139" viewBox="0 0 139 139" fill="none" xmlns="http://www.w3.org/2000/svg">
<g clip-path="url(#clip0_1_696)">
<path d="M72.2681 27.8363C80.0259 28.3461 87.4862 31.0178 93.8053 35.5492C100.124 40.0806 105.05 46.2908 108.024 53.4773C110.999 60.6638 111.905 68.5398 110.638 76.2143C109.371 83.8888 105.983 91.0555 100.857 96.9037L120.535 116.591C129.547 106.843 135.578 94.7144 137.913 81.6425C140.249 68.5705 138.79 55.1029 133.711 42.8345C128.633 30.5661 120.146 20.0111 109.256 12.4196C98.3665 4.82803 85.5304 0.518013 72.2681 0V27.8363Z" fill="url(#paint0_linear_1_696)"/>
<path d="M96.9254 100.838C91.9425 105.2 85.9926 108.312 79.5686 109.915C73.1446 111.519 66.4313 111.569 59.9843 110.06C53.5374 108.551 47.5423 105.528 42.4956 101.24C37.4488 96.9525 33.4955 91.5236 30.9629 85.4031C28.4303 79.2826 27.3914 72.6466 27.9321 66.0445C28.4728 59.4423 30.5776 53.064 34.0722 47.4376C37.5668 41.8113 42.3507 37.0987 48.0278 33.69C53.7049 30.2814 60.1119 28.2747 66.7183 27.8363V0C55.5283 0.436571 44.6094 3.57233 34.8916 9.14025C25.1737 14.7082 16.9447 22.5433 10.9053 31.9785C4.86584 41.4137 1.19492 52.1693 0.205107 63.3297C-0.78471 74.49 0.935892 85.7244 5.2204 96.0761C9.5049 106.428 16.2264 115.59 24.8125 122.783C33.3986 129.976 43.595 134.987 54.5333 137.388C65.4717 139.789 76.8281 139.51 87.6353 136.574C98.4426 133.638 108.381 128.132 116.603 120.526L96.9254 100.838Z" fill="url(#paint1_linear_1_696)"/>
<path d="M59.1546 69.461V62.366C59.1546 61.696 59.1996 60.956 59.2896 60.146L52.5546 69.461H59.1546ZM65.1096 69.461V71.606C65.1096 71.806 65.0446 71.981 64.9146 72.131C64.7846 72.271 64.5996 72.341 64.3596 72.341H62.3796V77.636H59.1546V72.341H50.0046C49.7546 72.341 49.5346 72.266 49.3446 72.116C49.1546 71.956 49.0346 71.761 48.9846 71.531L48.5946 69.656L58.8696 55.931H62.3796V69.461H65.1096ZM72.167 63.821C72.647 63.721 73.107 63.651 73.547 63.611C73.987 63.561 74.412 63.536 74.822 63.536C75.962 63.536 76.967 63.706 77.837 64.046C78.707 64.386 79.437 64.856 80.027 65.456C80.617 66.056 81.062 66.761 81.362 67.571C81.662 68.371 81.812 69.236 81.812 70.166C81.812 71.316 81.607 72.366 81.197 73.316C80.797 74.266 80.237 75.081 79.517 75.761C78.797 76.431 77.942 76.951 76.952 77.321C75.972 77.691 74.902 77.876 73.742 77.876C73.062 77.876 72.417 77.806 71.807 77.666C71.197 77.526 70.622 77.341 70.082 77.111C69.552 76.871 69.057 76.601 68.597 76.301C68.147 75.991 67.742 75.666 67.382 75.326L68.522 73.751C68.762 73.411 69.077 73.241 69.467 73.241C69.717 73.241 69.972 73.321 70.232 73.481C70.492 73.641 70.787 73.816 71.117 74.006C71.457 74.196 71.852 74.371 72.302 74.531C72.762 74.691 73.312 74.771 73.952 74.771C74.632 74.771 75.232 74.661 75.752 74.441C76.272 74.221 76.702 73.916 77.042 73.526C77.392 73.126 77.652 72.656 77.822 72.116C78.002 71.566 78.092 70.971 78.092 70.331C78.092 69.151 77.747 68.231 77.057 67.571C76.377 66.901 75.367 66.566 74.027 66.566C72.997 66.566 71.942 66.756 70.862 67.136L68.552 66.476L70.352 55.946H81.062V57.521C81.062 58.051 80.897 58.481 80.567 58.811C80.237 59.141 79.677 59.306 78.887 59.306H72.932L72.167 63.821Z" fill="#393766"/>
</g>
<defs>
<linearGradient id="paint0_linear_1_696" x1="93.466" y1="-1.43716" x2="126.284" y2="121.188" gradientUnits="userSpaceOnUse">
<stop stop-color="#FFE274"/>
<stop offset="1" stop-color="#FFDB54"/>
</linearGradient>
<linearGradient id="paint1_linear_1_696" x1="29.7474" y1="10.1857" x2="66.1239" y2="124.967" gradientUnits="userSpaceOnUse">
<stop stop-color="#FF729C"/>
<stop offset="1" stop-color="#FC5285"/>
</linearGradient>
<clipPath id="clip0_1_696">
<rect width="139" height="139" fill="white"/>
</clipPath>
</defs>
</svg>
