<svg width="14" height="15" viewBox="0 0 14 15" fill="none" xmlns="http://www.w3.org/2000/svg">
<g clip-path="url(#clip0_1_642)">
<path d="M11.2028 9.97662C11.1006 9.87442 11.0866 9.69802 11.165 9.57622C11.781 8.62842 12.1422 7.50002 12.1422 6.28762C12.1422 2.93882 9.4178 0.21582 6.0718 0.21582C2.723 0.21582 0 2.93882 0 6.28762C0 9.63502 2.723 12.358 6.0718 12.358C7.3752 12.358 8.582 11.9394 9.5732 11.2366C9.6894 11.1526 9.8644 11.1638 9.9666 11.2646L12.1366 13.4346C12.1506 13.4486 12.166 13.4626 12.1814 13.4738C12.2066 13.4948 12.3116 13.5928 12.4124 13.695L12.67 13.9512C12.7722 14.052 12.9374 14.052 13.0382 13.9512L13.923 13.0664C14.0252 12.9642 14.0252 12.799 13.9244 12.6968L11.2028 9.97662ZM9.744 9.11562C9.5438 9.37602 9.3184 9.61402 9.0692 9.82542C8.26 10.5128 7.2142 10.93 6.0718 10.93C3.5112 10.93 1.428 8.84682 1.428 6.28762C1.428 3.72842 3.5112 1.64382 6.0718 1.64382C8.631 1.64382 10.7142 3.72702 10.7142 6.28762C10.7142 7.35162 10.3488 8.33162 9.744 9.11562Z" fill="#CACCCF"/>
</g>
<defs>
<clipPath id="clip0_1_642">
<rect width="14" height="14" fill="white" transform="translate(0 0.125)"/>
</clipPath>
</defs>
</svg>
