
    <svg width="22" height="24" viewBox="0 0 22 24" fill="none" xmlns="http://www.w3.org/2000/svg">
<path d="M10 23.125C11.3797 23.125 12.4989 22.0059 12.4989 20.625H7.5012C7.5012 22.0059 8.62034 23.125 10 23.125ZM18.4137 17.277C17.659 16.466 16.2469 15.2461 16.2469 11.25C16.2469 8.21484 14.1188 5.78516 11.2492 5.18906V4.375C11.2492 3.68477 10.6899 3.125 10 3.125C9.31018 3.125 8.75081 3.68477 8.75081 4.375V5.18906C5.88128 5.78516 3.75315 8.21484 3.75315 11.25C3.75315 15.2461 2.34104 16.466 1.58636 17.277C1.35198 17.5289 1.24807 17.8301 1.25003 18.125C1.25432 18.7656 1.75706 19.375 2.50393 19.375H17.4961C18.243 19.375 18.7461 18.7656 18.75 18.125C18.752 17.8301 18.6481 17.5285 18.4137 17.277Z" fill="#C5C7CD"/>
<circle cx="16.25" cy="5.625" r="4.5" fill="#FC5285" stroke="#F7F8FC" stroke-width="1.5"/>
</svg>

