<svg width="20" height="20" viewBox="0 0 20 20" fill="none" xmlns="http://www.w3.org/2000/svg">
<g clip-path="url(#clip0_1_4179)">
<path d="M11.4048 9.89058L18.803 2.49213C19.2845 2.01089 19.2845 1.23279 18.803 0.751554C18.3217 0.270315 17.5437 0.270315 17.0624 0.751554L9.66396 8.15L2.26573 0.751554C1.78427 0.270315 1.0064 0.270315 0.52516 0.751554C0.0436965 1.23279 0.0436965 2.01089 0.52516 2.49213L7.92339 9.89058L0.52516 17.289C0.0436965 17.7703 0.0436965 18.5484 0.52516 19.0296C0.764991 19.2697 1.08033 19.3902 1.39545 19.3902C1.71056 19.3902 2.02568 19.2697 2.26573 19.0296L9.66396 11.6311L17.0624 19.0296C17.3025 19.2697 17.6176 19.3902 17.9327 19.3902C18.2478 19.3902 18.5629 19.2697 18.803 19.0296C19.2845 18.5484 19.2845 17.7703 18.803 17.289L11.4048 9.89058Z" fill="#C6CCD8"/>
</g>
<defs>
<clipPath id="clip0_1_4179">
<rect width="19" height="19" fill="white" transform="translate(0.164062 0.375)"/>
</clipPath>
</defs>
</svg>
