<svg width="16" height="17" viewBox="0 0 16 17" fill="none" xmlns="http://www.w3.org/2000/svg">
<path d="M8.0032 1.125C4.1344 1.125 1 4.2594 1 8.1218C1 11.9906 4.1344 15.125 8.0032 15.125C11.8656 15.125 15 11.9906 15 8.1218C15 4.2594 11.8656 1.125 8.0032 1.125ZM8.8048 12.9826C8.4592 13.0402 8.1296 13.069 7.8112 13.069C7.4768 13.069 7.136 13.0402 6.8016 12.9826C6.7504 12.6482 6.7216 12.3186 6.7216 11.989C6.7216 11.6594 6.7504 11.325 6.8016 10.9794C7.136 10.9282 7.472 10.8994 7.7952 10.8994C8.1248 10.8994 8.4592 10.9282 8.8048 10.9794C8.8624 11.3266 8.8864 11.661 8.8864 11.9778C8.8864 12.3138 8.8624 12.6482 8.8048 12.9826ZM10.6176 7.0706C10.456 7.3826 10.2544 7.6418 10.0224 7.8562C9.792 8.0706 9.5552 8.2434 9.3072 8.3698C9.064 8.5026 8.8624 8.6002 8.712 8.6642V9.9058C8.3952 9.957 8.088 9.9858 7.7936 9.9858C7.4992 9.9858 7.2112 9.957 6.9392 9.9058V7.5618C7.1472 7.5266 7.3664 7.4754 7.592 7.4066C7.8176 7.3378 8.0304 7.245 8.2208 7.1234C8.4112 7.0082 8.568 6.8578 8.688 6.685C8.8096 6.5058 8.872 6.2866 8.872 6.021C8.872 5.6338 8.728 5.3346 8.4512 5.1314C8.168 4.9234 7.7936 4.8258 7.3312 4.8258C7.1408 4.8258 6.9728 4.8322 6.8224 4.8434C6.672 4.8546 6.5344 4.8786 6.4064 4.9122C6.28 4.941 6.1472 4.981 6.0144 5.0226C5.888 5.0626 5.7488 5.109 5.5984 5.1666C5.472 4.9298 5.368 4.6818 5.2864 4.4274C5.2064 4.173 5.1536 3.9074 5.136 3.637C5.3728 3.557 5.592 3.4866 5.7936 3.429C5.9904 3.365 6.1856 3.3186 6.376 3.285C6.5664 3.2498 6.7568 3.221 6.9472 3.2098C7.1376 3.1986 7.3456 3.1874 7.5584 3.1874C8.6496 3.1874 9.4752 3.4354 10.0288 3.9314C10.5824 4.4274 10.8608 5.1026 10.8608 5.9698C10.8656 6.3954 10.7792 6.7602 10.6176 7.0706Z" fill="#BCC1CA"/>
</svg>
