<svg width="24" height="14" viewBox="0 0 24 14" fill="none" xmlns="http://www.w3.org/2000/svg">
<path d="M13.1171 11.3764H0.690371C0.309286 11.3764 0 11.8954 0 12.5348C0 13.1742 0.309286 13.6931 0.690371 13.6931H13.1171C13.4981 13.6931 13.8074 13.1742 13.8074 12.5348C13.8074 11.8954 13.4981 11.3764 13.1171 11.3764Z" fill="#FC5285"/>
<path d="M17.3427 5.70433H0.912771C0.408922 5.70433 0 6.22326 0 6.86266C0 7.50206 0.408922 8.021 0.912771 8.021H17.3427C17.8465 8.021 18.2554 7.50206 18.2554 6.86266C18.2554 6.22326 17.8465 5.70433 17.3427 5.70433Z" fill="#FC5285"/>
<path d="M22.0083 0.124981H1.15833C0.518933 0.124981 0 0.643915 0 1.28332C0 1.92272 0.518933 2.44165 1.15833 2.44165H22.0083C22.6477 2.44165 23.1667 1.92272 23.1667 1.28332C23.1667 0.643915 22.6477 0.124981 22.0083 0.124981Z" fill="#FC5285"/>
</svg>
